 <svg xmlns="http://www.w3.org/2000/svg" fill="#2196f3" width="700.000000pt" height="417.000000pt" viewBox="0 0 700.000000 417.000000" preserveAspectRatio="xMidYMid meet">
<metadata>
Created by potrace 1.12, written by Peter Selinger 2001-2015
</metadata>
<g transform="translate(0.000000,417.000000) scale(0.100000,-0.100000)" fill="#000000" stroke="none">
<path d="M3542 4138 c-5 -18 -7 -35 -6 -37 6 -7 45 42 41 53 -8 23 -27 15 -35
-16z"></path>
<path d="M4191 4138 c5 -18 9 -57 9 -85 0 -29 5 -53 10 -53 6 0 10 35 10 85 0
77 -2 85 -19 85 -17 0 -19 -4 -10 -32z"></path>
<path d="M4302 4135 c14 -20 46 -47 80 -65 60 -32 148 -51 148 -31 0 6 -11 11
-25 11 -13 0 -50 10 -81 21 -52 20 -73 35 -112 83 -25 30 -32 16 -10 -19z"></path>
<path d="M4500 4151 c31 -25 42 -26 38 -3 -2 11 -14 18 -33 20 l-30 3 25 -20z"></path>
<path d="M5635 4162 c-6 -5 -39 -19 -74 -32 -80 -29 -145 -88 -159 -145 -24
-91 -25 -95 -10 -95 14 0 31 38 43 97 13 63 92 109 265 154 l105 28 -80 0
c-45 1 -85 -3 -90 -7z"></path>
<path d="M6288 4122 c-31 -90 -95 -233 -117 -262 -12 -17 -40 -39 -63 -51 -45
-23 -75 -22 -147 5 -51 20 -78 16 -165 -24 -115 -51 -151 -67 -208 -89 -68
-27 -78 -38 -85 -90 -6 -42 21 -145 44 -171 7 -8 21 -25 31 -37 13 -18 29 -23
71 -25 l55 -3 10 43 c14 55 34 67 84 51 54 -18 74 -33 123 -94 63 -79 100
-191 139 -420 21 -123 38 -162 94 -215 20 -18 28 -20 45 -11 32 18 47 49 66
134 11 52 28 94 52 130 19 28 49 79 65 111 49 97 78 136 102 136 37 -1 99 -35
150 -83 44 -42 63 -52 89 -48 5 1 5 -4 1 -10 -3 -6 -2 -14 3 -18 5 -3 35 -52
67 -108 44 -79 69 -111 106 -138 43 -31 70 -43 70 -31 0 18 -47 79 -66 86 -15
6 -22 15 -18 24 3 8 1 17 -5 21 -6 3 -11 21 -11 40 0 22 -6 38 -17 44 -14 8
-9 10 21 6 22 -3 44 -11 48 -20 13 -21 78 -20 78 1 0 13 -7 15 -32 12 -45 -7
-114 42 -122 88 -11 53 14 97 72 129 33 18 49 32 45 41 -3 9 2 14 16 14 20 0
21 5 21 98 0 74 -5 107 -19 139 -23 50 -90 124 -147 164 -41 28 -44 28 -98 18
l-55 -12 -64 57 c-35 31 -69 56 -75 56 -16 0 3 49 31 78 33 36 105 69 167 77
92 12 121 35 104 79 -5 14 -140 86 -160 86 -3 0 -17 9 -31 20 -23 18 -41 20
-187 20 l-161 0 -17 -48z m537 -655 c6 2 28 -13 49 -32 38 -34 38 -36 21 -55
-10 -11 -30 -20 -44 -20 -34 1 -96 32 -95 48 1 6 2 25 3 41 1 27 3 29 29 22
15 -4 32 -6 37 -4z m-343 -131 c11 -16 9 -46 -3 -46 -17 0 -39 27 -39 49 0 15
4 19 18 14 9 -4 20 -11 24 -17z"></path>
<path d="M3683 4144 c-5 -15 21 -53 31 -43 7 7 -6 59 -15 59 -6 0 -12 -7 -16
-16z"></path>
<path d="M4647 4154 c-11 -12 3 -24 29 -24 16 0 24 5 22 13 -5 13 -40 22 -51
11z"></path>
<path d="M2920 4136 c-11 -14 -10 -19 2 -34 7 -9 21 -33 30 -53 15 -33 107
-124 125 -124 5 0 24 -13 43 -28 41 -33 231 -100 244 -87 8 8 -71 50 -94 50
-4 0 -36 19 -70 41 -37 25 -73 42 -89 41 -22 0 -39 12 -78 56 -27 31 -53 68
-56 82 -4 14 -15 35 -25 48 -16 21 -20 22 -32 8z"></path>
<path d="M2988 4125 c5 -28 22 -44 22 -21 0 21 -11 46 -20 46 -4 0 -5 -11 -2
-25z"></path>
<path d="M3868 4095 c-15 -44 -11 -58 9 -32 14 17 24 77 14 77 -5 0 -15 -20
-23 -45z"></path>
<path d="M4565 4130 c3 -5 8 -10 11 -10 2 0 4 5 4 10 0 6 -5 10 -11 10 -5 0
-7 -4 -4 -10z"></path>
<path d="M3040 4120 c0 -5 5 -10 10 -10 6 0 10 5 10 10 0 6 -4 10 -10 10 -5 0
-10 -4 -10 -10z"></path>
<path d="M4376 4121 c5 -4 24 -11 43 -15 29 -5 32 -4 21 9 -7 8 -26 15 -43 15
-18 0 -27 -4 -21 -9z"></path>
<path d="M3650 4104 c0 -8 5 -12 10 -9 6 3 10 10 10 16 0 5 -4 9 -10 9 -5 0
-10 -7 -10 -16z"></path>
<path d="M4585 4100 c-3 -5 -1 -10 4 -10 6 0 11 5 11 10 0 6 -2 10 -4 10 -3 0
-8 -4 -11 -10z"></path>
<path d="M3262 4080 c-12 -11 -27 -20 -35 -20 -16 0 -57 -41 -57 -57 0 -6 11
-8 25 -5 14 2 25 8 25 12 0 14 70 50 96 50 18 0 24 -5 22 -17 -2 -11 2 -17 11
-15 8 2 52 5 98 6 46 2 86 6 89 9 14 14 -10 27 -39 22 -18 -4 -69 3 -117 14
-103 25 -92 25 -118 1z"></path>
<path d="M4250 4086 c0 -9 7 -16 16 -16 17 0 14 22 -4 28 -7 2 -12 -3 -12 -12z"></path>
<path d="M3010 4071 c0 -5 5 -13 10 -16 6 -3 10 -2 10 4 0 5 -4 13 -10 16 -5
3 -10 2 -10 -4z"></path>
<path d="M4602 4060 c-14 -22 -9 -40 11 -40 7 0 12 14 13 30 1 35 -6 38 -24
10z"></path>
<path d="M3056 4051 c-7 -10 -1 -15 16 -12 4 0 13 -9 19 -20 9 -17 8 -23 -2
-30 -20 -12 1 -30 28 -23 14 4 19 12 16 24 -3 10 0 27 7 39 9 17 8 22 -6 28
-9 3 -24 1 -34 -5 -12 -7 -21 -7 -28 0 -6 6 -12 6 -16 -1z"></path>
<path d="M3825 4040 c-3 -5 -1 -10 4 -10 6 0 11 5 11 10 0 6 -2 10 -4 10 -3 0
-8 -4 -11 -10z"></path>
<path d="M4548 4023 c7 -3 16 -2 19 1 4 3 -2 6 -13 5 -11 0 -14 -3 -6 -6z"></path>
<path d="M5527 3953 c-14 -42 -23 -81 -20 -86 6 -10 43 27 43 45 0 7 7 32 15
56 15 41 13 62 -4 62 -4 0 -19 -35 -34 -77z"></path>
<path d="M4640 4010 c0 -5 9 -10 21 -10 11 0 17 5 14 10 -3 6 -13 10 -21 10
-8 0 -14 -4 -14 -10z"></path>
<path d="M4847 4013 c-10 -9 -9 -23 2 -23 5 0 11 7 15 15 5 15 -5 20 -17 8z"></path>
<path d="M3480 4000 c0 -5 -9 -18 -20 -28 -20 -19 -20 -19 5 -30 14 -7 25 -20
25 -31 0 -11 5 -23 10 -26 6 -4 8 -15 5 -25 -3 -10 1 -25 10 -33 8 -9 20 -28
25 -43 10 -24 8 -30 -12 -46 l-23 -18 33 0 c40 0 48 2 43 15 -2 6 -6 27 -9 49
-3 26 -11 40 -23 43 -11 3 -19 12 -19 20 0 9 6 13 15 9 23 -8 18 7 -15 49 -20
25 -30 49 -30 71 0 19 -4 34 -10 34 -5 0 -10 -4 -10 -10z"></path>
<path d="M4410 4000 c0 -16 27 -23 65 -16 52 10 42 26 -15 26 -28 0 -50 -5
-50 -10z"></path>
<path d="M3590 3990 c0 -5 5 -10 10 -10 6 0 10 5 10 10 0 6 -4 10 -10 10 -5 0
-10 -4 -10 -10z"></path>
<path d="M4350 3991 c0 -11 26 -22 34 -14 3 3 3 10 0 14 -7 12 -34 11 -34 0z"></path>
<path d="M3630 3980 c0 -5 5 -10 10 -10 6 0 10 5 10 10 0 6 -4 10 -10 10 -5 0
-10 -4 -10 -10z"></path>
<path d="M3233 3967 c4 -10 7 -23 7 -28 0 -5 7 -9 15 -9 21 0 19 14 -7 36 -20
18 -21 18 -15 1z"></path>
<path d="M4001 3954 c0 -11 3 -14 6 -6 3 7 2 16 -1 19 -3 4 -6 -2 -5 -13z"></path>
<path d="M4870 3959 c0 -5 5 -7 10 -4 6 3 10 8 10 11 0 2 -4 4 -10 4 -5 0 -10
-5 -10 -11z"></path>
<path d="M4830 3949 c0 -5 5 -7 10 -4 6 3 10 8 10 11 0 2 -4 4 -10 4 -5 0 -10
-5 -10 -11z"></path>
<path d="M3200 3936 c0 -9 5 -16 10 -16 6 0 10 4 10 9 0 6 -4 13 -10 16 -5 3
-10 -1 -10 -9z"></path>
<path d="M4010 3916 c0 -45 194 -294 289 -370 34 -28 55 -83 56 -143 0 -37 6
-60 23 -82 26 -35 28 -58 7 -97 -8 -16 -15 -37 -15 -46 0 -9 -15 -26 -34 -37
-39 -25 -49 -52 -36 -101 5 -19 16 -81 26 -136 l17 -102 -23 -31 c-12 -18 -19
-35 -16 -38 3 -4 6 0 6 7 0 11 3 11 12 2 17 -17 28 -15 28 6 0 10 7 28 17 41
13 19 14 30 5 55 -17 49 -34 155 -27 175 3 10 -1 24 -10 31 -8 7 -15 18 -15
25 0 18 32 43 60 47 22 3 25 8 27 47 2 24 10 52 18 61 21 23 19 33 -15 88 -24
40 -30 60 -32 121 l-3 74 -72 71 c-40 39 -77 76 -83 81 -10 11 -76 95 -125
160 -16 22 -37 53 -45 69 -17 33 -40 46 -40 22z"></path>
<path d="M4930 3841 c30 -22 57 -37 59 -35 7 7 -20 30 -62 53 -58 32 -57 25 3
-18z"></path>
<path d="M4250 3855 c0 -8 5 -15 10 -15 6 0 10 7 10 15 0 8 -4 15 -10 15 -5 0
-10 -7 -10 -15z"></path>
<path d="M3572 3838 c5 -15 28 -23 28 -10 0 5 -7 13 -16 16 -10 4 -14 1 -12
-6z"></path>
<path d="M4838 3833 c-10 -13 -13 -34 -10 -70 5 -67 17 -68 26 -3 4 28 10 50
14 50 21 0 62 -27 62 -40 -1 -24 -35 -94 -79 -159 -45 -66 -51 -81 -21 -51 11
11 25 20 31 20 6 0 20 11 31 25 11 14 27 25 35 25 9 0 13 3 10 7 -9 9 22 43
40 43 8 0 13 12 13 35 0 33 2 35 21 25 11 -7 24 -9 27 -5 9 8 -49 54 -69 55
-9 0 -22 7 -29 15 -7 8 -18 15 -25 15 -7 0 -18 7 -25 15 -16 20 -34 19 -52 -2z"></path>
<path d="M3794 3803 c3 -21 6 -46 6 -55 0 -10 5 -18 10 -18 11 0 13 52 4 88
-11 38 -27 25 -20 -15z"></path>
<path d="M3220 3800 c0 -5 5 -10 10 -10 6 0 10 5 10 10 0 6 -4 10 -10 10 -5 0
-10 -4 -10 -10z"></path>
<path d="M3385 3791 c-3 -5 -1 -12 5 -16 5 -3 10 1 10 9 0 18 -6 21 -15 7z"></path>
<path d="M3240 3765 c0 -4 9 -14 19 -23 11 -10 28 -33 39 -52 18 -34 20 -35
90 -38 54 -2 72 0 72 10 0 9 -17 14 -53 15 -41 2 -56 7 -72 26 -11 13 -28 27
-38 30 -9 4 -16 12 -15 19 2 7 -7 14 -19 16 -13 2 -23 0 -23 -3z"></path>
<path d="M3994 3648 c-11 -13 -33 -42 -48 -65 -25 -37 -28 -49 -22 -85 13 -82
26 -116 64 -163 41 -51 90 -75 155 -75 56 0 44 16 -22 29 -48 9 -66 19 -90 46
-34 39 -59 82 -78 135 -18 49 -16 68 8 98 59 77 85 139 33 80z"></path>
<path d="M3340 3623 c0 -14 19 -38 25 -32 8 8 -5 39 -16 39 -5 0 -9 -3 -9 -7z"></path>
<path d="M3340 3541 c0 -24 18 -37 32 -23 8 8 7 16 -2 27 -17 21 -30 19 -30
-4z"></path>
<path d="M3500 3462 c-36 -20 -51 -42 -28 -42 7 0 21 9 31 20 18 21 47 27 47
10 0 -5 -7 -10 -15 -10 -8 0 -15 -4 -15 -10 0 -14 9 -13 69 7 61 19 68 36 11
27 -27 -4 -40 -3 -40 5 0 16 -20 14 -60 -7z"></path>
<path d="M3660 3470 c0 -5 11 -10 25 -10 14 0 25 5 25 10 0 6 -11 10 -25 10
-14 0 -25 -4 -25 -10z"></path>
<path d="M3312 3438 c-19 -19 -14 -30 8 -18 11 6 20 15 20 20 0 14 -14 12 -28
-2z"></path>
<path d="M4248 3412 c-44 -4 -52 -22 -10 -22 26 0 62 15 52 22 -3 2 -22 2 -42
0z"></path>
<path d="M4040 3403 c0 -14 22 -33 37 -33 8 0 27 -10 44 -22 24 -18 32 -20 39
-9 5 10 19 12 44 8 20 -3 36 -2 36 3 0 13 -46 23 -71 17 -11 -3 -35 3 -52 13
-41 23 -77 34 -77 23z"></path>
<path d="M3220 3390 c0 -5 5 -10 10 -10 6 0 10 5 10 10 0 6 -4 10 -10 10 -5 0
-10 -4 -10 -10z"></path>
<path d="M4513 3373 c9 -9 19 -14 23 -11 10 10 -6 28 -24 28 -15 0 -15 -1 1
-17z"></path>
<path d="M3045 3371 c-3 -5 -1 -12 4 -15 13 -8 71 5 71 15 0 12 -67 11 -75 0z"></path>
<path d="M4283 3373 c-25 -5 -32 -23 -9 -23 22 0 46 11 46 21 0 5 -3 8 -7 8
-5 -1 -18 -4 -30 -6z"></path>
<path d="M2990 3360 c-8 -5 -12 -11 -9 -14 7 -8 49 5 49 15 0 12 -21 11 -40
-1z"></path>
<path d="M2768 3332 c-45 -33 -58 -56 -25 -46 12 3 29 13 38 20 8 8 32 14 52
14 42 0 56 15 28 29 -30 17 -53 13 -93 -17z"></path>
<path d="M2500 3335 c0 -8 6 -15 14 -15 8 0 18 -9 21 -20 10 -32 23 -23 23 15
0 32 -3 35 -29 35 -19 0 -29 -5 -29 -15z"></path>
<path d="M2465 3310 c-11 -18 32 -97 66 -122 42 -32 94 -44 114 -28 22 18 11
27 -42 35 -54 8 -100 47 -109 94 -7 31 -18 39 -29 21z"></path>
<path d="M2675 3270 c-3 -5 1 -10 10 -10 9 0 13 5 10 10 -3 6 -8 10 -10 10 -2
0 -7 -4 -10 -10z"></path>
<path d="M2751 3241 c-22 -31 -27 -51 -12 -51 8 0 51 64 51 76 0 13 -21 0 -39
-25z"></path>
<path d="M4520 3260 c0 -5 7 -10 15 -10 8 0 15 5 15 10 0 6 -7 10 -15 10 -8 0
-15 -4 -15 -10z"></path>
<path d="M3495 3219 c-4 -6 -5 -13 -2 -16 7 -7 27 6 27 18 0 12 -17 12 -25 -2z"></path>
<path d="M2950 3170 c0 -5 -7 -10 -15 -10 -26 0 -16 -24 20 -47 47 -31 54 -29
20 7 -23 24 -26 32 -15 45 8 10 9 15 1 15 -6 0 -11 -4 -11 -10z"></path>
<path d="M3368 3163 c-10 -2 -18 -11 -18 -20 0 -10 5 -13 18 -8 9 4 25 10 35
12 9 3 17 9 17 14 0 9 -22 10 -52 2z"></path>
<path d="M2880 3150 c0 -5 5 -10 10 -10 6 0 10 5 10 10 0 6 -4 10 -10 10 -5 0
-10 -4 -10 -10z"></path>
<path d="M2750 3140 c0 -5 5 -10 10 -10 6 0 10 5 10 10 0 6 -4 10 -10 10 -5 0
-10 -4 -10 -10z"></path>
<path d="M4802 3118 c-15 -19 -26 -128 -13 -128 6 0 11 10 11 23 0 13 4 27 9
33 14 14 25 84 13 84 -5 0 -14 -6 -20 -12z"></path>
<path d="M2616 3097 c-27 -27 -36 -72 -13 -64 6 2 11 14 10 26 -2 15 3 21 17
21 23 0 36 18 22 32 -7 7 -18 2 -36 -15z"></path>
<path d="M5030 3086 c0 -2 6 -9 14 -15 10 -9 16 -8 26 4 11 13 8 15 -14 15
-14 0 -26 -2 -26 -4z"></path>
<path d="M2950 3057 c0 -14 5 -29 10 -32 7 -4 10 3 8 19 -5 35 -18 45 -18 13z"></path>
<path d="M2781 3026 c-9 -10 -8 -15 4 -20 10 -4 15 1 15 14 0 24 -4 25 -19 6z"></path>
<path d="M2905 3030 c3 -5 8 -10 11 -10 2 0 4 5 4 10 0 6 -5 10 -11 10 -5 0
-7 -4 -4 -10z"></path>
<path d="M2810 3006 c0 -7 6 -19 14 -25 21 -17 30 4 10 23 -19 20 -24 20 -24
2z"></path>
<path d="M2562 2998 c-14 -14 -16 -38 -3 -38 8 0 23 41 17 47 -1 1 -8 -3 -14
-9z"></path>
<path d="M2420 2990 c0 -5 5 -10 10 -10 6 0 10 5 10 10 0 6 -4 10 -10 10 -5 0
-10 -4 -10 -10z"></path>
<path d="M4440 2979 c0 -11 5 -17 10 -14 6 3 10 13 10 21 0 8 -4 14 -10 14 -5
0 -10 -9 -10 -21z"></path>
<path d="M4500 2980 c0 -5 11 -10 25 -10 14 0 25 5 25 10 0 6 -11 10 -25 10
-14 0 -25 -4 -25 -10z"></path>
<path d="M4570 2980 c0 -5 5 -10 10 -10 6 0 10 5 10 10 0 6 -4 10 -10 10 -5 0
-10 -4 -10 -10z"></path>
<path d="M2770 2960 c0 -5 5 -10 10 -10 6 0 10 5 10 10 0 6 -4 10 -10 10 -5 0
-10 -4 -10 -10z"></path>
<path d="M3367 2950 c-9 -13 -14 -26 -12 -29 9 -8 38 26 33 40 -3 8 -10 5 -21
-11z"></path>
<path d="M4770 2953 c0 -5 7 -16 14 -26 12 -16 14 -15 14 8 0 15 -6 25 -14 25
-8 0 -14 -3 -14 -7z"></path>
<path d="M2723 2925 c2 -5 23 -10 47 -10 24 0 45 5 47 10 2 6 -18 10 -47 10
-29 0 -49 -4 -47 -10z"></path>
<path d="M3530 2910 c0 -5 5 -10 10 -10 6 0 10 5 10 10 0 6 -4 10 -10 10 -5 0
-10 -4 -10 -10z"></path>
<path d="M4510 2910 c0 -5 5 -10 10 -10 6 0 10 5 10 10 0 6 -4 10 -10 10 -5 0
-10 -4 -10 -10z"></path>
<path d="M3315 2899 c-4 -6 -5 -13 -2 -16 7 -7 27 6 27 18 0 12 -17 12 -25 -2z"></path>
<path d="M2525 2879 c-4 -6 -18 -8 -31 -5 -27 7 -32 -5 -9 -24 12 -10 21 -10
40 -2 14 7 25 16 25 21 0 15 -18 22 -25 10z"></path>
<path d="M3489 2877 c-24 -13 -33 -47 -14 -54 13 -4 58 54 47 61 -5 3 -19 -1
-33 -7z"></path>
<path d="M5692 2838 c-29 -14 -38 -50 -22 -89 21 -49 108 -163 132 -172 28
-10 62 22 84 79 30 78 -2 142 -88 178 -43 18 -73 19 -106 4z"></path>
<path d="M2728 2819 c-19 -11 -25 -39 -8 -39 6 0 10 5 10 10 0 6 7 10 15 10 8
0 15 7 15 15 0 17 -8 18 -32 4z"></path>
<path d="M3260 2789 c0 -25 6 -32 35 -45 44 -18 55 -18 55 1 0 8 -8 15 -18 15
-21 0 -52 29 -52 48 0 7 -4 12 -10 12 -5 0 -10 -14 -10 -31z"></path>
<path d="M2620 2790 c0 -5 5 -10 10 -10 6 0 10 5 10 10 0 6 -4 10 -10 10 -5 0
-10 -4 -10 -10z"></path>
<path d="M3440 2790 c0 -5 5 -10 10 -10 6 0 10 5 10 10 0 6 -4 10 -10 10 -5 0
-10 -4 -10 -10z"></path>
<path d="M4285 2789 c-11 -17 1 -21 15 -4 8 9 8 15 2 15 -6 0 -14 -5 -17 -11z"></path>
<path d="M4694 2789 c-7 -12 10 -29 50 -51 17 -9 17 -7 -3 21 -27 38 -38 45
-47 30z"></path>
<path d="M2428 2783 c-10 -2 -18 -12 -18 -21 0 -9 -14 -31 -32 -49 -17 -18
-29 -36 -25 -39 10 -11 85 43 92 66 7 23 9 23 54 10 44 -12 50 -6 20 19 -23
19 -54 24 -91 14z"></path>
<path d="M2753 2776 c-29 -14 -29 -20 4 -62 28 -38 49 -30 33 12 -5 12 -6 31
-3 43 6 23 0 24 -34 7z"></path>
<path d="M3970 2753 c0 -26 32 -113 42 -113 11 0 10 54 -1 66 -5 5 -11 20 -13
33 -4 29 -28 41 -28 14z"></path>
<path d="M4436 2732 c-12 -19 45 -57 96 -63 38 -5 31 14 -10 28 -18 6 -41 18
-51 27 -20 18 -28 20 -35 8z"></path>
<path d="M2580 2695 c7 -9 15 -13 17 -11 7 7 -7 26 -19 26 -6 0 -6 -6 2 -15z"></path>
<path d="M4960 2701 c0 -15 43 -31 86 -31 46 0 43 16 -3 24 -21 3 -48 9 -60
12 -14 4 -23 2 -23 -5z"></path>
<path d="M3435 2674 c-61 -11 -75 -18 -106 -54 -20 -22 -43 -40 -51 -40 -8 0
-27 -13 -42 -29 -17 -18 -41 -31 -59 -33 -17 -2 -33 -9 -35 -17 -4 -11 5 -13
43 -8 50 7 76 21 72 40 -1 6 17 17 41 25 23 8 42 20 42 27 0 21 27 37 107 60
42 12 79 27 81 33 4 14 -3 14 -93 -4z"></path>
<path d="M4656 2672 c-3 -5 5 -19 19 -32 13 -12 29 -35 35 -51 10 -24 9 -34
-9 -68 -12 -24 -16 -43 -11 -46 6 -4 13 2 17 12 3 10 15 28 25 40 20 21 20 22
0 65 -21 47 -66 95 -76 80z"></path>
<path d="M2287 2659 c-40 -23 -4 -70 39 -50 16 7 22 16 18 23 -6 9 -9 9 -12 0
-4 -13 -32 -17 -32 -4 0 4 5 13 11 19 15 15 -3 24 -24 12z"></path>
<path d="M4475 2650 c-3 -5 -1 -10 4 -10 6 0 11 5 11 10 0 6 -2 10 -4 10 -3 0
-8 -4 -11 -10z"></path>
<path d="M5519 2644 c-20 -25 -17 -131 5 -152 16 -16 19 -15 38 8 26 32 21
111 -9 141 -18 19 -21 19 -34 3z"></path>
<path d="M2465 2640 c3 -5 8 -10 11 -10 2 0 4 5 4 10 0 6 -5 10 -11 10 -5 0
-7 -4 -4 -10z"></path>
<path d="M2695 2623 c15 -16 29 -19 58 -16 46 6 49 23 5 23 -18 0 -44 3 -58 6
l-25 7 20 -20z"></path>
<path d="M2544 2599 c-3 -6 -1 -16 5 -22 6 -6 11 -26 11 -43 0 -18 5 -36 11
-40 6 -3 8 -15 6 -26 -3 -11 -2 -31 3 -44 6 -14 6 -26 0 -29 -6 -4 -10 -15
-10 -25 0 -10 -25 -52 -55 -92 -30 -40 -55 -78 -55 -85 0 -21 -61 -64 -81 -58
-24 8 -27 -20 -3 -29 31 -12 124 54 124 88 0 14 10 30 25 40 14 9 25 23 25 31
0 8 14 30 31 50 28 31 31 43 32 98 1 48 -5 74 -25 115 -15 29 -24 60 -21 68 6
16 -13 19 -23 3z"></path>
<path d="M3803 2597 c-44 -22 -36 -97 10 -97 23 1 63 45 48 54 -4 3 -16 -3
-26 -14 -21 -23 -45 -26 -45 -7 0 16 27 41 53 50 10 4 15 11 12 17 -7 12 -23
11 -52 -3z"></path>
<path d="M3707 2574 c-12 -12 -8 -32 8 -37 8 -4 17 -2 19 2 7 11 -18 44 -27
35z"></path>
<path d="M2287 2549 c-9 -6 -17 -14 -17 -19 0 -16 37 -11 43 5 8 19 -4 26 -26
14z"></path>
<path d="M2170 2541 c0 -11 26 -22 34 -14 3 3 3 10 0 14 -7 12 -34 11 -34 0z"></path>
<path d="M3105 2530 c3 -5 8 -10 11 -10 2 0 4 5 4 10 0 6 -5 10 -11 10 -5 0
-7 -4 -4 -10z"></path>
<path d="M2430 2507 c0 -16 48 -37 84 -37 20 0 20 0 1 20 -27 26 -85 38 -85
17z"></path>
<path d="M3000 2510 c0 -6 7 -10 15 -10 8 0 15 2 15 4 0 2 -7 6 -15 10 -8 3
-15 1 -15 -4z"></path>
<path d="M3710 2501 c0 -5 5 -13 10 -16 6 -3 10 -2 10 4 0 5 -4 13 -10 16 -5
3 -10 2 -10 -4z"></path>
<path d="M4796 2491 c-10 -11 -13 -22 -8 -25 9 -6 20 4 36 32 11 19 -9 14 -28
-7z"></path>
<path d="M2270 2490 c0 -5 5 -10 10 -10 6 0 10 5 10 10 0 6 -4 10 -10 10 -5 0
-10 -4 -10 -10z"></path>
<path d="M2895 2481 c-6 -11 9 -23 19 -14 9 9 7 23 -3 23 -6 0 -12 -4 -16 -9z"></path>
<path d="M2338 2463 c-11 -13 -6 -16 38 -26 29 -6 48 7 41 27 -7 18 -63 18
-79 -1z"></path>
<path d="M3770 2470 c0 -5 5 -10 11 -10 5 0 7 5 4 10 -3 6 -8 10 -11 10 -2 0
-4 -4 -4 -10z"></path>
<path d="M6215 2447 c-40 -22 -61 -39 -63 -54 -2 -15 -8 -19 -23 -16 -13 4
-19 0 -19 -11 0 -9 6 -16 13 -16 8 0 18 -20 24 -46 9 -37 8 -44 -3 -40 -24 9
-15 -7 25 -48 26 -25 56 -43 88 -52 44 -11 45 -13 15 -13 -42 -1 -107 31 -154
77 -21 20 -38 32 -38 27 0 -6 -5 -3 -10 5 -8 13 -10 12 -10 -2 0 -10 -4 -18
-10 -18 -13 0 -57 -88 -65 -133 -6 -30 -4 -37 9 -37 9 0 21 10 25 23 9 22 9
22 20 -6 6 -16 11 -35 11 -43 0 -13 18 -19 48 -15 6 1 20 -2 29 -8 12 -6 -8
-8 -62 -5 -63 3 -82 1 -97 -13 -13 -11 -18 -12 -18 -3 0 10 -3 10 -15 0 -8 -7
-22 -10 -30 -6 -10 3 -15 -1 -15 -12 0 -10 -5 -23 -11 -29 -13 -13 -5 -43 12
-43 7 0 9 9 5 24 -4 17 -1 26 12 31 36 16 44 14 38 -10 -7 -27 8 -41 42 -36
12 1 22 -1 22 -6 0 -5 -10 -13 -22 -18 -13 -6 -23 -17 -23 -25 0 -27 89 -17
130 14 31 24 35 25 35 9 0 -11 -5 -24 -10 -29 -11 -11 -3 -44 10 -44 5 0 21
-13 37 -30 15 -16 34 -30 42 -30 11 0 12 -3 4 -11 -9 -9 -18 -8 -37 5 -15 9
-26 21 -26 27 0 6 -5 7 -10 4 -14 -9 9 -36 113 -132 78 -72 94 -83 144 -93 31
-7 76 -9 101 -5 50 7 95 32 86 47 -4 5 -11 5 -18 -2 -24 -19 -102 -24 -135 -7
-28 14 -32 14 -41 -1 -10 -16 -10 -16 -8 0 2 9 -18 41 -44 71 -27 31 -48 58
-48 61 0 3 -13 24 -29 48 -16 24 -34 61 -40 83 -6 22 -20 55 -31 73 -17 27
-18 37 -9 48 7 8 18 13 26 10 16 -7 18 45 2 61 -7 7 -9 19 -5 28 5 14 14 16
44 11 100 -18 112 -18 116 -5 15 42 11 54 -23 65 -27 9 -30 12 -16 18 20 7 84
-2 101 -15 7 -6 29 1 58 17 66 37 113 47 126 25 8 -14 11 -14 25 7 32 44 125
82 288 118 51 11 77 21 77 30 0 8 -7 14 -16 14 -9 0 -27 11 -40 25 l-23 25 40
6 c32 5 39 11 39 29 l0 23 -62 -20 c-95 -31 -270 -29 -402 6 -68 18 -123 26
-180 26 -72 -1 -88 -5 -141 -33z"></path>
<path d="M2218 2463 c-10 -2 -18 -9 -18 -14 0 -6 9 -7 20 -4 28 9 25 -11 -4
-30 -23 -15 -42 -65 -25 -65 5 0 9 5 9 12 0 6 6 3 14 -7 8 -11 12 -24 9 -30
-2 -5 2 -2 10 7 8 10 29 21 48 24 37 7 92 51 83 66 -3 5 -13 3 -22 -5 -21 -18
-72 -31 -72 -18 0 5 12 19 27 30 14 12 23 24 20 28 -4 3 -15 -1 -25 -10 -24
-22 -29 -21 -35 3 -5 20 -8 21 -39 13z"></path>
<path d="M3810 2450 c0 -5 4 -10 9 -10 6 0 13 5 16 10 3 6 -1 10 -9 10 -9 0
-16 -4 -16 -10z"></path>
<path d="M4890 2449 c0 -10 40 -32 47 -25 3 2 2 9 -1 14 -8 13 -46 22 -46 11z"></path>
<path d="M3636 2417 c-42 -40 -45 -53 -12 -61 13 -3 31 -9 39 -12 11 -4 21 6
33 31 16 35 16 37 -3 56 -20 20 -20 20 -57 -14z"></path>
<path d="M3070 2431 c0 -11 31 -24 39 -16 3 3 -1 10 -9 15 -19 12 -30 12 -30
1z"></path>
<path d="M4214 2403 c-3 -16 -12 -42 -20 -60 -17 -37 -17 -43 -4 -43 6 0 16
11 22 25 13 30 25 31 58 5 14 -11 31 -20 38 -20 23 0 -11 40 -46 55 -28 12
-32 18 -26 40 4 15 2 25 -5 25 -6 0 -13 -12 -17 -27z"></path>
<path d="M2052 2409 c-13 -5 -21 -13 -17 -18 3 -5 1 -12 -5 -16 -6 -4 -8 -11
-4 -16 4 -6 10 -6 19 1 7 6 19 8 27 5 13 -5 48 32 48 50 0 8 -42 5 -68 -6z"></path>
<path d="M5110 2410 c0 -5 5 -10 10 -10 6 0 10 5 10 10 0 6 -4 10 -10 10 -5 0
-10 -4 -10 -10z"></path>
<path d="M1960 2400 c0 -13 -33 -27 -82 -35 -29 -4 -38 -11 -38 -26 0 -11 7
-22 15 -25 9 -4 14 -11 13 -18 -5 -21 10 -21 50 2 31 17 44 33 56 67 13 39 13
45 0 45 -8 0 -14 -5 -14 -10z"></path>
<path d="M4615 2400 c3 -5 11 -10 16 -10 6 0 7 5 4 10 -3 6 -11 10 -16 10 -6
0 -7 -4 -4 -10z"></path>
<path d="M4825 2379 c-4 -6 -5 -13 -2 -16 7 -7 27 6 27 18 0 12 -17 12 -25 -2z"></path>
<path d="M5166 2381 c-9 -14 4 -41 19 -41 15 0 28 27 19 41 -3 5 -11 9 -19 9
-8 0 -16 -4 -19 -9z"></path>
<path d="M3936 2364 c-4 -11 -13 -14 -31 -10 -27 7 -75 -2 -75 -13 0 -4 16 -7
35 -8 20 -1 43 -7 51 -14 13 -10 17 -10 24 1 5 8 7 17 4 21 -2 4 0 10 6 14 12
8 13 25 1 25 -5 0 -12 -7 -15 -16z"></path>
<path d="M3382 2345 c-14 -31 -15 -35 -4 -35 8 0 32 43 32 55 0 15 -19 1 -28
-20z"></path>
<path d="M4672 2364 c-7 -3 -26 -26 -43 -50 -16 -24 -36 -44 -42 -44 -7 0 -19
-6 -25 -12 -7 -7 -18 -13 -25 -14 -7 0 -36 -4 -65 -8 -41 -7 -52 -12 -50 -25
2 -9 -8 -30 -20 -46 l-23 -30 21 -17 c25 -20 150 -26 150 -8 0 6 -9 10 -21 10
-29 0 -59 18 -59 35 0 18 57 55 82 55 10 0 35 16 57 35 21 19 44 35 51 35 7 0
10 7 6 17 -9 22 10 33 56 33 32 0 57 14 46 25 -7 8 -83 14 -96 9z m-217 -214
c3 -6 -6 -15 -20 -20 -36 -14 -37 -13 -25 10 11 21 35 27 45 10z"></path>
<path d="M3770 2350 c0 -5 9 -10 20 -10 11 0 20 5 20 10 0 6 -9 10 -20 10 -11
0 -20 -4 -20 -10z"></path>
<path d="M4950 2350 c0 -5 5 -10 10 -10 6 0 10 5 10 10 0 6 -4 10 -10 10 -5 0
-10 -4 -10 -10z"></path>
<path d="M2150 2336 c0 -16 24 -38 33 -30 8 9 -11 44 -23 44 -6 0 -10 -6 -10
-14z"></path>
<path d="M3215 2340 c-3 -5 -1 -10 4 -10 6 0 11 5 11 10 0 6 -2 10 -4 10 -3 0
-8 -4 -11 -10z"></path>
<path d="M5040 2344 c0 -11 44 -100 89 -177 15 -26 47 -68 71 -92 l43 -44 -7
-58 c-4 -32 -12 -94 -16 -138 -5 -44 -13 -109 -19 -145 -12 -77 6 -144 51
-186 26 -26 28 -26 52 -11 29 19 60 104 51 139 -5 21 -12 25 -42 23 -20 0 -38
-6 -41 -13 -2 -7 1 -12 7 -12 6 0 11 -11 11 -25 0 -15 -6 -25 -15 -25 -18 0
-37 34 -29 54 3 8 2 21 -2 28 -11 17 -13 51 -4 63 4 6 10 55 13 110 3 55 13
123 22 150 l15 50 -59 55 c-38 36 -63 69 -71 95 -7 22 -27 56 -44 75 -17 19
-41 49 -53 65 -12 17 -23 25 -23 19z"></path>
<path d="M6070 2335 c0 -8 5 -15 10 -15 6 0 10 7 10 15 0 8 -4 15 -10 15 -5 0
-10 -7 -10 -15z"></path>
<path d="M2890 2330 c-11 -7 -12 -12 -3 -21 14 -14 46 -4 41 13 -6 16 -20 19
-38 8z"></path>
<path d="M3423 2308 c-2 -29 -1 -30 14 -16 8 9 13 24 10 32 -10 26 -22 18 -24
-16z"></path>
<path d="M2093 2303 c-32 -21 -29 -57 7 -93 l30 -31 28 19 c15 10 35 22 44 25
20 7 15 32 -9 41 -9 4 -17 -1 -20 -13 -6 -22 -52 -34 -70 -19 -16 13 -7 28 15
28 9 0 24 4 32 10 12 7 12 12 -4 29 -22 25 -24 25 -53 4z"></path>
<path d="M3730 2304 c0 -3 12 -18 28 -34 15 -15 33 -35 40 -44 15 -19 86 -23
80 -4 -4 12 -26 26 -101 67 -40 22 -47 25 -47 15z"></path>
<path d="M6929 2282 c-80 -42 -99 -56 -99 -69 0 -7 3 -13 8 -13 15 0 162 91
162 100 0 16 -14 12 -71 -18z"></path>
<path d="M1960 2290 c0 -5 7 -10 16 -10 8 0 12 5 9 10 -3 6 -10 10 -16 10 -5
0 -9 -4 -9 -10z"></path>
<path d="M4505 2290 c-3 -5 -1 -10 4 -10 6 0 11 5 11 10 0 6 -2 10 -4 10 -3 0
-8 -4 -11 -10z"></path>
<path d="M2340 2275 c0 -8 5 -15 10 -15 6 0 10 7 10 15 0 8 -4 15 -10 15 -5 0
-10 -7 -10 -15z"></path>
<path d="M1925 2269 c-4 -6 -5 -13 -2 -16 7 -7 27 6 27 18 0 12 -17 12 -25 -2z"></path>
<path d="M2745 2260 c-18 -19 -18 -20 3 -20 24 0 38 18 25 31 -6 6 -16 2 -28
-11z"></path>
<path d="M3226 2271 c-4 -5 -2 -12 3 -15 5 -4 12 -2 15 3 4 5 2 12 -3 15 -5 4
-12 2 -15 -3z"></path>
<path d="M3562 2259 c-24 -11 -51 -28 -61 -38 -9 -9 -40 -32 -69 -51 -63 -41
-55 -60 12 -28 80 39 85 42 88 61 2 13 19 25 47 36 24 9 46 22 49 29 5 17 -16
14 -66 -9z"></path>
<path d="M3675 2260 c3 -5 11 -10 16 -10 6 0 7 5 4 10 -3 6 -11 10 -16 10 -6
0 -7 -4 -4 -10z"></path>
<path d="M5385 2260 c-9 -15 4 -30 26 -30 23 0 26 25 3 34 -21 8 -22 8 -29 -4z"></path>
<path d="M1965 2250 c-3 -5 1 -13 10 -16 22 -9 29 1 11 15 -10 8 -16 9 -21 1z"></path>
<path d="M1810 2235 c-18 -21 -9 -46 25 -66 83 -49 105 -57 105 -39 0 6 -9 10
-19 10 -22 0 -84 67 -76 81 7 10 13 7 55 -22 16 -12 35 -16 53 -12 38 8 34 21
-10 29 -20 4 -48 13 -62 20 -34 18 -56 18 -71 -1z"></path>
<path d="M3720 2240 c0 -5 5 -10 10 -10 6 0 10 5 10 10 0 6 -4 10 -10 10 -5 0
-10 -4 -10 -10z"></path>
<path d="M5327 2244 c-9 -10 2 -24 19 -24 8 0 14 7 14 15 0 15 -21 21 -33 9z"></path>
<path d="M5940 2229 c-63 -34 -89 -82 -50 -94 17 -5 20 -15 20 -60 0 -49 2
-53 26 -58 30 -5 43 15 24 38 -15 18 -7 52 26 118 40 80 27 95 -46 56z"></path>
<path d="M4330 2226 c0 -8 -3 -21 -6 -30 -4 -10 -1 -16 9 -16 17 0 32 34 22
50 -9 15 -25 12 -25 -4z"></path>
<path d="M6929 2193 c-33 -27 -69 -64 -80 -83 -33 -64 -57 -125 -52 -133 10
-17 51 35 57 71 7 45 54 104 106 133 24 14 40 30 40 41 0 10 -2 18 -4 18 -3 0
-33 -21 -67 -47z"></path>
<path d="M4090 2200 c20 -13 33 -13 25 0 -3 6 -14 10 -23 10 -15 0 -15 -2 -2
-10z"></path>
<path d="M2198 2171 c-36 -32 -34 -51 2 -29 18 10 24 10 27 1 8 -22 33 -14 33
10 1 22 1 22 16 2 8 -11 12 -30 9 -42 -3 -12 0 -25 6 -28 7 -5 3 -14 -10 -26
-20 -18 -28 -39 -16 -39 3 0 21 7 40 14 37 16 44 30 20 40 -11 4 -14 13 -10
29 4 13 0 41 -9 61 -13 30 -20 36 -45 36 -20 0 -42 -11 -63 -29z"></path>
<path d="M2555 2170 c3 -5 8 -10 11 -10 2 0 4 5 4 10 0 6 -5 10 -11 10 -5 0
-7 -4 -4 -10z"></path>
<path d="M4162 2169 c-13 -5 -20 -13 -17 -19 8 -12 25 -13 45 0 23 14 0 30
-28 19z"></path>
<path d="M6680 2170 c-108 -36 -171 -52 -210 -52 -34 0 -52 -7 -72 -26 -15
-14 -25 -29 -22 -34 8 -12 88 -10 121 3 15 7 37 13 49 15 42 5 158 61 172 82
16 25 8 27 -38 12z"></path>
<path d="M3300 2160 c-8 -5 -11 -12 -7 -16 4 -4 13 -2 19 4 15 15 7 24 -12 12z"></path>
<path d="M3820 2155 c-11 -13 -8 -15 14 -13 14 1 26 8 26 15 0 18 -25 16 -40
-2z"></path>
<path d="M4793 2149 c-45 -21 -60 -46 -20 -33 50 15 87 34 87 43 0 16 -19 13
-67 -10z"></path>
<path d="M3130 2149 c0 -5 5 -7 10 -4 6 3 10 8 10 11 0 2 -4 4 -10 4 -5 0 -10
-5 -10 -11z"></path>
<path d="M3575 2149 c-9 -14 -2 -20 14 -10 8 6 9 11 3 15 -6 3 -14 1 -17 -5z"></path>
<path d="M3054 2136 c-8 -21 3 -36 27 -36 25 0 24 22 -1 38 -17 10 -21 10 -26
-2z"></path>
<path d="M5000 2115 c0 -8 5 -15 10 -15 6 0 10 7 10 15 0 8 -4 15 -10 15 -5 0
-10 -7 -10 -15z"></path>
<path d="M3526 2101 c-14 -16 -16 -26 -9 -48 9 -26 10 -27 20 -8 16 31 24 75
15 75 -5 0 -17 -9 -26 -19z"></path>
<path d="M4276 2080 c-14 -22 -26 -42 -26 -45 0 -4 41 -6 160 -7 140 -1 194
26 68 34 -68 5 -90 10 -122 32 -21 14 -42 26 -46 26 -4 0 -19 -18 -34 -40z"></path>
<path d="M4627 2102 c-16 -18 -30 -48 -41 -94 -10 -44 7 -32 28 18 10 25 29
52 42 61 24 15 24 33 0 33 -7 0 -20 -8 -29 -18z"></path>
<path d="M5396 2111 c-4 -5 -2 -12 3 -15 5 -4 12 -2 15 3 4 5 2 12 -3 15 -5 4
-12 2 -15 -3z"></path>
<path d="M5849 2109 c-12 -8 -11 -11 4 -20 27 -16 20 -28 -15 -23 -27 3 -29 2
-12 -5 12 -5 24 -16 27 -25 11 -27 24 -18 30 20 7 41 -10 68 -34 53z"></path>
<path d="M2708 2098 c-3 -7 -17 -12 -31 -10 -30 2 -36 -12 -11 -22 32 -12 81
23 54 39 -4 3 -10 0 -12 -7z"></path>
<path d="M2813 2088 c-34 -21 -43 -38 -19 -38 16 0 66 38 66 51 0 13 -10 10
-47 -13z"></path>
<path d="M1885 2080 c-16 -18 -16 -18 4 -13 25 6 35 19 22 27 -4 3 -16 -3 -26
-14z"></path>
<path d="M2980 2090 c0 -5 5 -10 10 -10 6 0 10 5 10 10 0 6 -4 10 -10 10 -5 0
-10 -4 -10 -10z"></path>
<path d="M3972 2087 c-14 -17 -3 -32 28 -42 14 -4 42 -18 62 -32 42 -28 137
-38 145 -15 3 8 -7 12 -31 12 -46 0 -83 17 -125 57 -36 35 -62 41 -79 20z"></path>
<path d="M3294 2078 c-2 -4 1 -10 6 -13 13 -8 80 3 80 13 0 9 -81 9 -86 0z"></path>
<path d="M1777 2073 c-4 -3 -7 -13 -7 -21 0 -10 7 -12 24 -8 15 4 26 1 29 -7
2 -6 8 -9 12 -5 4 4 3 14 -3 21 -7 8 -9 17 -5 20 3 4 -5 7 -19 7 -13 0 -28 -3
-31 -7z"></path>
<path d="M3435 2066 c-19 -14 -19 -16 14 -50 33 -34 58 -43 32 -12 -7 8 -11
27 -9 42 4 32 -10 40 -37 20z"></path>
<path d="M3882 2069 c2 -7 10 -15 17 -17 8 -3 12 1 9 9 -2 7 -10 15 -17 17 -8
3 -12 -1 -9 -9z"></path>
<path d="M1926 2061 c-4 -5 -3 -16 0 -25 5 -13 -1 -16 -35 -16 -34 0 -41 -3
-41 -19 0 -30 18 -34 47 -11 15 12 34 18 45 15 13 -5 18 -1 19 12 0 10 3 13 6
6 3 -9 26 -13 64 -13 33 0 68 -5 79 -12 29 -19 36 -1 11 26 -19 20 -30 23 -58
19 -27 -5 -38 -2 -45 10 -10 18 -82 24 -92 8z"></path>
<path d="M2951 2032 c-12 -23 -21 -44 -21 -47 0 -12 31 -4 36 10 4 8 13 15 21
15 10 0 12 6 8 23 -13 40 -23 40 -44 -1z"></path>
<path d="M3203 2063 c-25 -5 -32 -23 -9 -23 22 0 46 11 46 21 0 5 -3 8 -7 8
-5 -1 -18 -4 -30 -6z"></path>
<path d="M6950 2034 c-22 -20 -40 -33 -40 -28 0 4 -5 3 -12 -4 -7 -7 -22 -12
-34 -12 -30 0 -39 -17 -22 -38 7 -9 24 -38 37 -64 37 -70 53 -87 89 -94 25 -5
32 -3 32 10 0 10 -8 16 -23 16 -30 0 -50 16 -73 60 -10 19 -25 43 -32 52 -12
15 -10 18 17 32 40 21 48 20 28 -2 -10 -10 -14 -21 -11 -25 11 -11 54 25 54
45 0 11 9 22 20 25 14 4 20 14 20 34 0 16 -2 29 -5 29 -3 0 -23 -16 -45 -36z"></path>
<path d="M5442 2050 c-63 -7 -102 -29 -102 -58 0 -9 -8 -25 -19 -36 -27 -30
-41 -81 -41 -147 0 -78 16 -75 24 3 4 34 14 76 22 93 47 97 68 115 140 115 47
0 56 -3 64 -22 5 -13 34 -50 65 -83 51 -57 54 -58 35 -21 -10 21 -25 46 -33
55 -8 9 -24 37 -36 64 -15 30 -29 47 -39 46 -10 -1 -45 -5 -80 -9z"></path>
<path d="M2704 2029 c-3 -5 -10 -7 -15 -4 -5 3 -6 0 -3 -8 9 -24 51 -27 70 -6
10 11 15 19 13 20 -39 6 -60 6 -65 -2z"></path>
<path d="M6570 2030 c0 -10 41 -30 63 -30 17 0 -14 27 -40 35 -14 4 -23 2 -23
-5z"></path>
<path d="M2410 1998 c-26 -12 -39 -23 -30 -25 22 -5 102 20 101 32 0 17 -24
15 -71 -7z"></path>
<path d="M5820 2012 c0 -5 6 -16 13 -27 16 -20 33 -5 23 20 -6 16 -36 21 -36
7z"></path>
<path d="M4253 1999 c-17 -17 -5 -43 13 -28 15 12 19 39 6 39 -4 0 -13 -5 -19
-11z"></path>
<path d="M6660 2002 c0 -14 91 -35 102 -24 13 13 2 18 -54 26 -28 4 -48 3 -48
-2z"></path>
<path d="M4852 1947 c-70 -71 -66 -81 8 -17 55 48 72 70 52 70 -4 0 -31 -24
-60 -53z"></path>
<path d="M5678 1993 c-27 -2 -48 -8 -48 -12 0 -16 68 -22 90 -9 19 12 28 30
13 26 -5 -1 -29 -3 -55 -5z"></path>
<path d="M2235 1976 c-23 -13 -49 -36 -40 -36 3 0 -2 -11 -10 -24 -9 -14 -12
-27 -7 -30 11 -7 33 16 36 38 1 8 13 23 26 34 28 23 25 35 -5 18z"></path>
<path d="M2269 1953 c-34 -39 -69 -90 -69 -103 0 -5 -7 -10 -15 -10 -8 0 -15
5 -15 10 0 6 -7 10 -15 10 -10 0 -15 10 -15 27 0 25 -1 26 -16 11 -16 -15 -16
-19 0 -52 9 -20 31 -43 48 -52 29 -15 32 -15 57 4 16 12 25 28 24 41 -2 12 12
43 30 69 50 71 50 72 29 72 -10 0 -29 -12 -43 -27z"></path>
<path d="M2635 1971 c-3 -5 -2 -12 2 -14 12 -8 63 4 63 14 0 12 -57 12 -65 0z"></path>
<path d="M1654 1955 c-15 -11 -16 -14 -3 -15 8 0 24 7 35 15 15 11 16 14 3 15
-8 0 -24 -7 -35 -15z"></path>
<path d="M1733 1956 c-29 -16 -19 -26 23 -26 28 0 54 15 43 24 -13 11 -47 12
-66 2z"></path>
<path d="M2000 1960 c0 -5 5 -10 10 -10 6 0 10 5 10 10 0 6 -4 10 -10 10 -5 0
-10 -4 -10 -10z"></path>
<path d="M2045 1960 c-3 -5 1 -10 9 -10 9 0 16 5 16 10 0 6 -4 10 -9 10 -6 0
-13 -4 -16 -10z"></path>
<path d="M5172 1928 c-18 -23 -32 -46 -32 -51 0 -18 -82 -107 -99 -107 -25 0
-41 20 -41 51 0 15 -7 29 -16 33 -10 4 -13 13 -9 27 6 18 4 20 -14 14 -14 -4
-23 -1 -27 9 -3 9 -10 16 -15 16 -15 0 -10 -27 8 -41 9 -8 22 -27 28 -43 11
-25 10 -34 -2 -53 -26 -39 -33 -93 -17 -125 8 -15 19 -28 24 -28 6 0 10 -11
10 -24 0 -14 5 -28 10 -31 6 -3 10 -17 10 -31 0 -13 5 -24 10 -24 6 0 10 22
10 50 0 58 12 88 47 114 l26 19 -9 -29 c-9 -32 -9 -40 -3 -224 4 -147 -11
-208 -67 -276 -37 -46 -32 -56 13 -27 35 23 73 107 73 163 0 57 9 70 48 73 26
2 32 6 32 25 0 28 -10 28 -39 1 -12 -12 -25 -18 -29 -14 -10 10 -3 261 8 291
6 14 10 46 10 71 0 28 7 55 19 71 22 31 72 134 68 138 -2 2 -18 -15 -35 -38z"></path>
<path d="M2092 1944 c4 -21 22 -23 26 -1 2 10 -3 17 -13 17 -10 0 -15 -6 -13
-16z"></path>
<path d="M2444 1949 c-10 -17 13 -36 27 -22 12 12 4 33 -11 33 -5 0 -12 -5
-16 -11z"></path>
<path d="M3485 1940 c-3 -5 -1 -10 4 -10 6 0 11 5 11 10 0 6 -2 10 -4 10 -3 0
-8 -4 -11 -10z"></path>
<path d="M4184 1935 c-10 -25 7 -40 23 -20 7 11 13 22 13 27 0 14 -30 9 -36
-7z"></path>
<path d="M1850 1930 c0 -5 11 -10 25 -10 14 0 25 5 25 10 0 6 -11 10 -25 10
-14 0 -25 -4 -25 -10z"></path>
<path d="M1956 1915 c-9 -24 11 -66 29 -59 17 7 20 20 5 29 -5 3 -10 15 -10
26 0 23 -15 25 -24 4z"></path>
<path d="M2000 1920 c0 -5 4 -10 9 -10 6 0 13 5 16 10 3 6 -1 10 -9 10 -9 0
-16 -4 -16 -10z"></path>
<path d="M4405 1909 c-10 -15 3 -25 16 -12 7 7 7 13 1 17 -6 3 -14 1 -17 -5z"></path>
<path d="M2555 1900 c-4 -6 -3 -16 3 -22 6 -6 12 -6 17 2 4 6 3 16 -3 22 -6 6
-12 6 -17 -2z"></path>
<path d="M4170 1867 c-97 -33 -119 -51 -65 -54 41 -2 65 6 65 22 0 16 100 40
129 30 30 -9 35 14 6 25 -33 13 -24 14 -135 -23z"></path>
<path d="M1595 1864 c-15 -17 -38 -26 -71 -30 -58 -7 -94 -22 -94 -41 0 -9 8
-11 23 -8 15 4 28 1 36 -9 17 -21 29 -20 79 4 22 11 47 20 53 20 7 0 20 7 29
15 9 8 39 19 67 25 41 7 58 6 82 -6 48 -24 55 -46 30 -94 -12 -22 -25 -40 -29
-40 -4 0 -10 -6 -13 -14 -7 -18 44 -16 67 3 16 14 22 32 9 30 -23 -4 -17 6 33
56 53 53 65 83 37 92 -7 3 -22 -12 -34 -31 -24 -41 -43 -38 -34 4 8 37 -9 42
-144 45 -98 2 -105 1 -126 -21z m65 -4 c0 -5 -6 -10 -14 -10 -7 0 -19 -7 -26
-15 -7 -8 -18 -15 -24 -15 -12 0 44 49 57 50 4 0 7 -4 7 -10z"></path>
<path d="M6795 1860 c-4 -6 -3 -16 3 -22 6 -6 12 -6 17 2 4 6 3 16 -3 22 -6 6
-12 6 -17 -2z"></path>
<path d="M6560 1850 c0 -5 5 -10 10 -10 6 0 10 5 10 10 0 6 -4 10 -10 10 -5 0
-10 -4 -10 -10z"></path>
<path d="M4261 1837 c-6 -8 -8 -17 -5 -20 9 -8 44 11 44 23 0 15 -26 12 -39
-3z"></path>
<path d="M4367 1826 c-57 -34 -69 -51 -22 -31 22 9 50 21 63 26 13 5 20 13 17
19 -8 13 -13 12 -58 -14z"></path>
<path d="M2011 1816 c-18 -21 -2 -39 29 -34 22 3 22 3 3 27 -17 21 -20 22 -32
7z"></path>
<path d="M6600 1820 c0 -5 5 -10 10 -10 6 0 10 5 10 10 0 6 -4 10 -10 10 -5 0
-10 -4 -10 -10z"></path>
<path d="M6694 1796 c-21 -19 -36 -38 -31 -42 4 -4 20 7 36 26 19 23 30 30 35
21 8 -12 -2 -29 -50 -88 -43 -54 -13 -37 50 26 51 51 57 62 46 75 -19 24 -43
19 -86 -18z"></path>
<path d="M6535 1799 c-4 -6 -5 -12 -2 -15 2 -3 7 2 10 11 7 17 1 20 -8 4z"></path>
<path d="M4065 1789 c-10 -15 3 -25 16 -12 7 7 7 13 1 17 -6 3 -14 1 -17 -5z"></path>
<path d="M4815 1789 c-4 -6 -5 -13 -2 -16 7 -7 27 6 27 18 0 12 -17 12 -25 -2z"></path>
<path d="M5591 1779 c-32 -13 -14 -31 22 -21 28 7 37 26 15 29 -7 1 -24 -2
-37 -8z"></path>
<path d="M4211 1730 c-33 -27 -62 -54 -65 -59 -4 -5 -26 -13 -50 -16 -41 -7
-47 -4 -102 39 -33 25 -62 46 -66 46 -19 0 -4 -26 38 -68 43 -42 50 -46 93
-44 69 4 151 22 151 34 0 5 -7 8 -15 5 -23 -10 -28 11 -4 23 25 14 53 5 43
-12 -4 -7 2 -5 13 5 11 9 28 17 39 17 21 1 91 56 82 65 -3 4 -23 -3 -44 -14
-42 -23 -74 -27 -74 -11 0 6 4 10 8 10 5 0 17 7 28 15 17 13 17 14 2 15 -9 0
-44 -22 -77 -50z"></path>
<path d="M6485 1770 c-3 -5 -1 -10 4 -10 6 0 11 5 11 10 0 6 -2 10 -4 10 -3 0
-8 -4 -11 -10z"></path>
<path d="M1578 1756 c-10 -7 -18 -16 -18 -20 0 -13 28 -5 45 14 21 24 1 28
-27 6z"></path>
<path d="M1747 1763 c-4 -3 -7 -17 -7 -31 0 -15 -7 -26 -19 -29 -11 -3 -21
-17 -25 -34 -6 -34 -25 -37 -51 -9 -15 16 -15 22 -5 35 10 12 10 15 -2 15 -8
0 -20 -11 -26 -25 -10 -21 -9 -27 4 -32 10 -4 14 -13 10 -29 -9 -34 9 -38 57
-15 24 12 51 21 60 21 21 0 31 18 19 33 -7 8 -6 20 3 37 18 32 19 70 2 70 -8
0 -17 -3 -20 -7z"></path>
<path d="M2135 1760 c-3 -5 -17 -10 -31 -10 -13 0 -24 -4 -24 -10 0 -5 11 -10
25 -10 27 0 95 25 95 34 0 10 -59 6 -65 -4z"></path>
<path d="M1360 1737 c-31 -11 -35 -16 -36 -49 -1 -57 -24 -76 -85 -70 -42 4
-54 1 -74 -18 -13 -12 -26 -34 -30 -48 -9 -37 -24 -52 -50 -52 -12 0 -30 -9
-40 -20 -10 -11 -22 -20 -27 -20 -5 0 -42 -18 -83 -41 l-75 -41 15 -29 c9 -16
17 -29 19 -29 10 0 147 73 152 81 3 5 17 9 30 9 15 0 34 10 44 23 15 18 21 20
31 10 19 -19 54 -16 74 7 10 11 31 20 46 20 22 0 41 14 85 64 53 59 81 76 68
42 -3 -7 2 -19 11 -26 15 -12 19 -11 33 7 10 11 24 23 33 26 17 5 79 90 79
107 0 17 -44 39 -65 34 -15 -4 -24 0 -28 10 -8 19 -75 21 -127 3z m20 -47 c9
-17 17 -20 48 -14 20 3 41 10 47 15 12 12 55 11 55 -1 0 -5 -11 -17 -25 -26
-18 -12 -24 -22 -20 -35 5 -14 1 -19 -11 -19 -10 0 -14 3 -11 7 4 3 2 12 -4
20 -8 9 -15 10 -24 3 -9 -8 -15 -8 -20 0 -9 14 -25 13 -25 -2 0 -7 -12 -18
-26 -25 -23 -11 -25 -10 -18 5 5 9 8 34 7 55 -1 41 10 48 27 17z m-50 -109 c0
-6 -11 -23 -24 -38 -22 -25 -25 -26 -31 -10 -4 9 -12 17 -17 17 -6 0 -8 -6 -5
-14 7 -19 -24 -42 -55 -41 -34 0 -41 8 -33 35 10 32 49 54 74 40 13 -6 21 -7
21 -1 0 5 12 12 28 14 15 2 30 5 35 6 4 0 7 -3 7 -8z"></path>
<path d="M4780 1730 c0 -5 5 -10 10 -10 6 0 10 5 10 10 0 6 -4 10 -10 10 -5 0
-10 -4 -10 -10z"></path>
<path d="M6975 1720 c-10 -11 -13 -20 -8 -20 13 0 38 29 31 35 -3 3 -13 -4
-23 -15z"></path>
<path d="M5564 1705 c-23 -35 -11 -42 33 -19 48 25 54 44 14 44 -22 0 -35 -7
-47 -25z"></path>
<path d="M6330 1720 c0 -5 5 -10 11 -10 5 0 7 5 4 10 -3 6 -8 10 -11 10 -2 0
-4 -4 -4 -10z"></path>
<path d="M6400 1720 c0 -5 5 -10 10 -10 6 0 10 5 10 10 0 6 -4 10 -10 10 -5 0
-10 -4 -10 -10z"></path>
<path d="M4050 1711 c0 -13 29 -35 37 -28 7 8 -15 37 -28 37 -5 0 -9 -4 -9 -9z"></path>
<path d="M5367 1703 c-10 -16 11 -39 23 -27 8 8 7 14 -4 23 -8 7 -17 8 -19 4z"></path>
<path d="M5832 1673 c14 -16 33 -53 43 -83 9 -30 18 -61 21 -68 2 -7 8 -11 14
-7 6 3 2 25 -10 56 -11 27 -20 59 -20 69 0 24 -34 60 -57 60 -14 0 -12 -5 9
-27z"></path>
<path d="M5394 1646 c-18 -14 -18 -15 9 -25 39 -15 67 -14 73 4 4 8 12 15 20
15 8 0 14 5 14 10 0 15 -94 12 -116 -4z"></path>
<path d="M6652 1639 c2 -6 8 -10 13 -10 5 0 11 4 13 10 2 6 -4 11 -13 11 -9 0
-15 -5 -13 -11z"></path>
<path d="M6726 1633 c-9 -22 4 -133 15 -133 5 0 9 34 9 75 0 71 -10 95 -24 58z"></path>
<path d="M4197 1633 c-16 -15 -5 -34 29 -48 36 -15 54 -13 54 6 0 5 -12 9 -26
9 -17 0 -28 6 -31 20 -5 21 -15 25 -26 13z"></path>
<path d="M4701 1620 c-13 -11 -18 -20 -12 -20 7 0 21 9 33 20 28 26 10 26 -21
0z"></path>
<path d="M6812 1602 c-29 -40 -25 -61 7 -35 15 13 22 27 19 43 -3 25 -3 25
-26 -8z"></path>
<path d="M6924 1608 c-10 -10 -22 -27 -28 -37 -6 -10 -24 -40 -40 -65 -23 -38
-26 -49 -16 -61 16 -19 34 -19 49 -1 7 8 34 17 62 21 40 6 49 10 49 27 0 12
-5 18 -12 15 -47 -17 -58 -18 -58 -3 0 8 5 18 10 21 6 4 8 15 5 25 -4 13 3 25
25 41 16 13 30 25 30 28 0 15 -61 6 -76 -11z m-34 -128 c0 -5 -2 -10 -4 -10
-3 0 -8 5 -11 10 -3 6 -1 10 4 10 6 0 11 -4 11 -10z"></path>
<path d="M5655 1610 c-3 -5 -1 -10 4 -10 6 0 11 5 11 10 0 6 -2 10 -4 10 -3 0
-8 -4 -11 -10z"></path>
<path d="M6440 1610 c0 -5 5 -10 10 -10 6 0 10 5 10 10 0 6 -4 10 -10 10 -5 0
-10 -4 -10 -10z"></path>
<path d="M3992 1589 c5 -16 68 -25 68 -10 0 6 -6 11 -12 11 -7 0 -24 3 -37 7
-18 4 -23 2 -19 -8z"></path>
<path d="M4086 1591 c-7 -10 18 -34 27 -25 7 8 -3 34 -13 34 -5 0 -11 -4 -14
-9z"></path>
<path d="M5485 1587 c-13 -10 -15 -16 -6 -21 12 -8 41 10 41 25 0 13 -13 11
-35 -4z"></path>
<path d="M6975 1564 c-16 -25 -16 -25 4 -14 12 6 21 17 21 25 0 21 -5 19 -25
-11z"></path>
<path d="M4633 1543 c-64 -35 -74 -51 -48 -73 12 -10 20 -6 47 22 18 18 44 41
58 50 17 11 22 19 15 26 -7 6 -32 -2 -72 -25z"></path>
<path d="M6630 1565 c0 -8 5 -15 10 -15 6 0 10 7 10 15 0 8 -4 15 -10 15 -5 0
-10 -7 -10 -15z"></path>
<path d="M5620 1560 c0 -5 5 -10 10 -10 6 0 10 5 10 10 0 6 -4 10 -10 10 -5 0
-10 -4 -10 -10z"></path>
<path d="M3990 1540 c0 -5 5 -10 10 -10 6 0 10 5 10 10 0 6 -4 10 -10 10 -5 0
-10 -4 -10 -10z"></path>
<path d="M6818 1534 c-5 -4 -8 -19 -8 -33 0 -18 3 -22 11 -14 6 6 9 21 7 33
-1 12 -6 18 -10 14z"></path>
<path d="M3786 1484 c-28 -13 -57 -24 -66 -24 -40 0 -67 -73 -36 -99 14 -12
27 -2 38 30 8 21 104 69 139 69 22 0 32 -6 39 -25 11 -28 22 -31 39 -11 10 12
9 21 -6 43 -9 15 -22 31 -28 35 -19 14 -70 7 -119 -18z"></path>
<path d="M5530 1453 c-23 -45 -23 -49 -1 -24 12 13 21 29 21 37 0 21 -5 17
-20 -13z"></path>
<path d="M4540 1460 c0 -5 5 -10 10 -10 6 0 10 5 10 10 0 6 -4 10 -10 10 -5 0
-10 -4 -10 -10z"></path>
<path d="M5110 1455 c0 -8 5 -15 10 -15 6 0 10 7 10 15 0 8 -4 15 -10 15 -5 0
-10 -7 -10 -15z"></path>
<path d="M4980 1425 c0 -8 5 -15 10 -15 6 0 10 7 10 15 0 8 -4 15 -10 15 -5 0
-10 -7 -10 -15z"></path>
<path d="M6280 1432 c0 -5 7 -13 16 -16 10 -4 14 -1 12 6 -5 15 -28 23 -28 10z"></path>
<path d="M6337 1433 c-4 -6 4 -20 17 -32 15 -15 26 -19 31 -12 3 6 17 11 31
11 23 0 32 14 16 24 -19 11 -90 18 -95 9z"></path>
<path d="M3970 1417 c0 -20 37 -50 50 -42 8 5 4 15 -11 31 -25 27 -39 31 -39
11z"></path>
<path d="M4296 1395 c-11 -8 -17 -17 -14 -20 3 -3 16 3 29 14 27 23 14 28 -15
6z"></path>
<path d="M6602 1389 c1 -13 8 -23 13 -21 15 3 12 35 -3 40 -9 3 -13 -3 -10
-19z"></path>
<path d="M4430 1380 c-31 -24 -40 -25 -40 -4 0 11 -6 14 -22 8 -33 -9 -138
-81 -173 -118 -17 -17 -43 -41 -59 -54 -15 -13 -25 -26 -22 -30 4 -3 19 4 34
16 115 93 137 106 181 109 24 1 51 -2 61 -7 11 -6 26 -4 44 5 19 10 33 12 46
5 23 -12 60 26 60 64 0 22 -4 27 -22 24 -15 -2 -25 -14 -32 -38 l-10 -35 -4
30 c-5 42 -13 47 -42 25z m-55 -40 c-3 -5 -10 -10 -16 -10 -5 0 -9 5 -9 10 0
6 7 10 16 10 8 0 12 -4 9 -10z"></path>
<path d="M6770 1390 c0 -5 5 -10 10 -10 6 0 10 5 10 10 0 6 -4 10 -10 10 -5 0
-10 -4 -10 -10z"></path>
<path d="M4970 1374 c0 -8 5 -12 10 -9 6 3 10 10 10 16 0 5 -4 9 -10 9 -5 0
-10 -7 -10 -16z"></path>
<path d="M5496 1373 c-3 -3 -3 -33 1 -67 4 -45 13 -69 32 -93 41 -50 61 -36
20 15 -22 29 -19 64 8 94 24 27 13 53 -24 55 -17 0 -34 -1 -37 -4z"></path>
<path d="M3611 1344 c-20 -26 -29 -88 -13 -97 6 -4 237 51 277 67 16 6 21 36
5 36 -5 0 -24 -8 -42 -18 -40 -22 -149 -45 -172 -36 -9 3 -23 1 -31 -6 -8 -7
-15 -9 -15 -4 1 15 26 44 39 44 14 0 14 13 -1 28 -17 17 -24 15 -47 -14z"></path>
<path d="M3967 1350 c18 -21 58 -27 68 -10 4 6 -7 10 -24 10 -17 0 -31 5 -31
10 0 6 -7 10 -15 10 -12 0 -12 -3 2 -20z"></path>
<path d="M4223 1348 c-44 -22 -55 -38 -28 -38 13 0 88 59 75 60 -3 0 -24 -10
-47 -22z"></path>
<path d="M6670 1359 c-13 -8 -12 -11 3 -23 9 -7 17 -20 17 -29 0 -28 -22 -31
-41 -6 -16 21 -19 22 -19 5 0 -19 63 -86 81 -86 14 0 11 16 -6 30 -23 19 -18
33 10 26 30 -8 31 -2 5 31 -11 14 -20 32 -20 39 0 18 -14 24 -30 13z"></path>
<path d="M6390 1346 c0 -9 5 -16 10 -16 6 0 10 4 10 9 0 6 -4 13 -10 16 -5 3
-10 -1 -10 -9z"></path>
<path d="M3924 1325 c-2 -22 1 -25 20 -19 31 9 32 13 10 29 -26 20 -29 19 -30
-10z"></path>
<path d="M5130 1285 c0 -25 5 -45 10 -45 6 0 10 20 10 45 0 25 -4 45 -10 45
-5 0 -10 -20 -10 -45z"></path>
<path d="M5607 1323 c-10 -9 -9 -23 2 -23 5 0 11 7 15 15 5 15 -5 20 -17 8z"></path>
<path d="M5953 1296 c30 -27 37 -39 32 -56 -4 -12 -1 -28 6 -37 8 -8 15 -36
17 -62 6 -92 30 -147 55 -122 7 7 6 12 -6 17 -13 5 -17 19 -17 58 0 64 -25
164 -48 189 -9 11 -30 26 -47 33 -28 14 -28 13 8 -20z"></path>
<path d="M4118 1313 c-10 -2 -18 -9 -18 -15 0 -5 7 -7 16 -4 9 3 22 6 30 6 8
0 14 5 14 10 0 10 -12 11 -42 3z"></path>
<path d="M4680 1280 c0 -23 -20 -70 -30 -70 -4 0 -13 7 -20 15 -7 8 -16 15
-21 15 -16 0 -9 -27 11 -45 20 -18 21 -18 50 14 29 32 42 91 20 91 -5 0 -10
-9 -10 -20z"></path>
<path d="M4857 1293 c-4 -3 -7 -11 -7 -17 0 -6 5 -5 12 2 6 6 9 14 7 17 -3 3
-9 2 -12 -2z"></path>
<path d="M3540 1255 c0 -14 5 -25 10 -25 6 0 10 11 10 25 0 14 -4 25 -10 25
-5 0 -10 -11 -10 -25z"></path>
<path d="M4920 1260 c0 -5 5 -10 10 -10 6 0 10 5 10 10 0 6 -4 10 -10 10 -5 0
-10 -4 -10 -10z"></path>
<path d="M3478 1239 c-23 -24 -23 -29 2 -29 22 0 38 26 24 39 -5 4 -17 0 -26
-10z"></path>
<path d="M4800 1215 c-18 -19 -21 -28 -12 -37 9 -9 18 -6 37 12 14 13 25 29
25 37 0 21 -25 15 -50 -12z"></path>
<path d="M5630 1232 c0 -17 39 -44 57 -39 15 3 13 6 -9 15 -16 6 -28 16 -28
22 0 5 -4 10 -10 10 -5 0 -10 -4 -10 -8z"></path>
<path d="M6760 1213 c0 -25 15 -38 25 -22 4 6 0 18 -9 27 -15 15 -16 15 -16
-5z"></path>
<path d="M6851 1216 c-8 -9 -17 -13 -22 -10 -5 3 -12 -2 -15 -10 -4 -9 9 -42
30 -76 l36 -61 -26 -9 c-57 -22 -74 -22 -122 0 -65 31 -198 58 -219 44 -8 -5
-14 -13 -12 -17 2 -4 -12 -17 -31 -28 -19 -12 -50 -37 -67 -56 -18 -19 -39
-33 -46 -30 -8 3 -25 -8 -38 -25 -13 -17 -40 -47 -60 -68 -48 -52 -99 -156
-99 -204 0 -52 27 -105 66 -128 21 -12 31 -25 27 -34 -4 -10 3 -14 23 -14 15
0 37 -9 48 -19 20 -18 56 -26 99 -23 14 2 17 7 12 25 -10 33 -20 39 -67 48
-143 26 -176 47 -185 120 -5 33 -2 45 12 55 13 10 15 17 7 27 -7 8 -7 18 -2
27 8 13 12 12 24 -5 9 -11 16 -28 16 -37 0 -11 8 -18 20 -18 13 0 18 5 14 15
-4 8 -1 22 6 29 9 12 7 17 -10 26 -28 15 -16 30 26 30 62 0 73 -12 67 -72 -5
-51 -4 -54 28 -71 17 -10 34 -15 37 -13 2 3 -1 35 -8 71 -7 36 -9 86 -6 113
l7 47 -20 -25 c-18 -23 -26 -25 -83 -22 -35 2 -65 6 -67 8 -7 7 91 103 112
110 20 6 57 -21 57 -43 0 -7 5 -13 10 -13 6 0 10 11 10 25 0 18 7 26 25 31 14
3 25 10 25 14 0 8 -41 7 -69 -1 -24 -7 -23 18 2 34 29 19 112 27 112 10 0 -20
12 -24 26 -7 11 14 9 20 -21 44 -28 23 -33 31 -22 41 9 10 15 10 23 2 6 -6 18
-9 25 -6 17 6 76 -20 94 -42 9 -11 23 -13 49 -9 27 4 41 2 50 -10 18 -22 49
-20 91 5 41 25 50 36 50 65 0 12 7 24 15 28 15 5 39 55 31 63 -2 2 -13 -1 -25
-9 -17 -10 -23 -10 -33 0 -10 10 -10 15 2 22 13 8 12 12 -6 30 -18 19 -22 19
-33 6z m13 -62 c8 -21 8 -24 -3 -24 -5 0 -11 9 -14 20 -6 24 8 27 17 4z m-474
-669 c0 -8 -6 -15 -14 -15 -17 0 -28 14 -19 24 12 12 33 6 33 -9z"></path>
<path d="M4880 1199 c0 -5 5 -7 10 -4 6 3 10 8 10 11 0 2 -4 4 -10 4 -5 0 -10
-5 -10 -11z"></path>
<path d="M5125 1180 c-12 -37 -88 -80 -156 -87 -35 -3 -74 -12 -89 -20 -14 -7
-35 -13 -48 -13 -32 0 -23 -24 11 -28 18 -2 29 3 37 17 8 16 17 20 36 15 69
-17 234 66 234 118 0 24 -17 23 -25 -2z"></path>
<path d="M4695 1180 c-6 -10 41 -41 49 -33 3 4 6 12 6 19 0 13 -48 26 -55 14z"></path>
<path d="M5490 1160 c0 -16 5 -30 10 -30 6 0 10 14 10 30 0 17 -4 30 -10 30
-5 0 -10 -13 -10 -30z"></path>
<path d="M5716 1184 c15 -6 5 -125 -12 -145 -13 -14 -12 -18 1 -29 21 -17 25
-11 32 49 4 35 14 60 31 78 23 25 23 27 6 40 -10 7 -29 13 -43 12 -14 0 -21
-3 -15 -5z"></path>
<path d="M4844 1166 c-3 -7 -4 -17 -3 -22 4 -21 -2 -26 -16 -14 -16 13 -45 7
-45 -9 0 -5 14 -13 32 -16 26 -6 35 -4 46 14 8 11 21 21 28 21 8 0 14 7 14 15
0 9 -6 12 -15 9 -8 -4 -15 -1 -15 5 0 16 -20 14 -26 -3z"></path>
<path d="M5570 1150 c0 -5 5 -10 11 -10 5 0 7 5 4 10 -3 6 -8 10 -11 10 -2 0
-4 -4 -4 -10z"></path>
<path d="M6976 1133 c0 -15 6 -29 12 -31 13 -4 16 17 6 42 -10 25 -20 19 -18
-11z"></path>
<path d="M4056 1132 c-3 -6 -1 -14 5 -17 15 -10 25 3 12 16 -7 7 -13 7 -17 1z"></path>
<path d="M5830 1125 c7 -9 15 -13 17 -11 7 7 -7 26 -19 26 -6 0 -6 -6 2 -15z"></path>
<path d="M6680 1120 c0 -14 48 -43 60 -35 17 10 11 25 -10 25 -11 0 -20 5 -20
10 0 6 -7 10 -15 10 -8 0 -15 -4 -15 -10z"></path>
<path d="M4697 1093 c-10 -9 -8 -45 2 -62 7 -11 13 -10 35 4 27 18 34 35 14
35 -6 0 -19 7 -28 15 -9 8 -20 12 -23 8z"></path>
<path d="M5140 1080 c0 -5 5 -10 10 -10 6 0 10 5 10 10 0 6 -4 10 -10 10 -5 0
-10 -4 -10 -10z"></path>
<path d="M5500 1065 c-27 -28 -20 -47 8 -22 27 25 50 21 66 -11 8 -15 23 -36
35 -46 12 -11 21 -30 21 -43 0 -12 5 -23 10 -23 20 0 9 60 -19 103 -26 38 -65
67 -90 67 -4 0 -18 -11 -31 -25z"></path>
<path d="M5660 1071 c0 -6 5 -13 10 -16 6 -3 10 1 10 9 0 9 -4 16 -10 16 -5 0
-10 -4 -10 -9z"></path>
<path d="M6228 1062 c-22 -9 -62 -61 -54 -70 4 -3 16 -1 26 6 24 15 70 16 70
2 0 -21 -48 -59 -88 -70 -48 -12 -64 -30 -28 -30 32 0 45 -20 17 -27 -12 -3
-21 -9 -21 -13 0 -7 24 -20 36 -20 2 0 29 38 59 85 30 47 64 90 75 97 27 17
25 38 -2 37 -13 0 -34 2 -48 5 -14 3 -33 2 -42 -2z"></path>
<path d="M5420 1040 c0 -5 9 -10 20 -10 11 0 20 5 20 10 0 6 -9 10 -20 10 -11
0 -20 -4 -20 -10z"></path>
<path d="M3685 1030 c-4 -6 -18 -15 -31 -20 -25 -10 -34 -40 -11 -40 6 1 25
12 42 25 22 18 27 27 18 36 -8 8 -13 8 -18 -1z"></path>
<path d="M6586 1023 c-11 -11 -6 -23 9 -23 8 0 15 4 15 9 0 13 -16 22 -24 14z"></path>
<path d="M5466 995 c-12 -19 -14 -30 -6 -44 5 -11 10 -29 10 -40 0 -12 4 -21
9 -21 11 0 21 112 11 123 -4 4 -15 -3 -24 -18z"></path>
<path d="M3500 1000 c0 -5 7 -10 15 -10 8 0 15 5 15 10 0 6 -7 10 -15 10 -8 0
-15 -4 -15 -10z"></path>
<path d="M6105 1001 c-6 -12 35 -42 47 -35 12 8 -10 44 -27 44 -7 0 -16 -4
-20 -9z"></path>
<path d="M5400 981 c-13 -25 -13 -61 0 -61 6 0 10 11 10 25 0 14 7 28 15 31 8
4 12 10 9 15 -9 15 -23 10 -34 -10z"></path>
<path d="M5782 979 c2 -6 8 -10 13 -10 5 0 11 4 13 10 2 6 -4 11 -13 11 -9 0
-15 -5 -13 -11z"></path>
<path d="M6215 980 c-3 -5 -1 -10 4 -10 6 0 11 5 11 10 0 6 -2 10 -4 10 -3 0
-8 -4 -11 -10z"></path>
<path d="M6623 954 c2 -22 10 -42 19 -48 21 -13 36 0 20 16 -7 7 -12 20 -12
29 0 9 -7 22 -14 29 -13 10 -15 6 -13 -26z"></path>
<path d="M5136 963 c-6 -15 8 -32 26 -33 4 0 23 -14 43 -31 47 -41 46 -16 -1
39 -38 45 -58 52 -68 25z"></path>
<path d="M4606 931 c-4 -5 -2 -12 3 -15 5 -4 12 -2 15 3 4 5 2 12 -3 15 -5 4
-12 2 -15 -3z"></path>
<path d="M5315 930 c-3 -5 -1 -10 4 -10 6 0 11 5 11 10 0 6 -2 10 -4 10 -3 0
-8 -4 -11 -10z"></path>
<path d="M5527 922 c-19 -21 -22 -32 -7 -32 6 0 10 7 10 15 0 22 24 18 46 -6
10 -12 31 -27 46 -35 16 -8 28 -20 28 -27 0 -14 32 -44 72 -70 36 -23 42 -21
24 5 -9 12 -16 35 -16 50 0 16 -4 28 -10 28 -5 0 -10 -7 -10 -15 0 -8 -4 -15
-9 -15 -14 0 -41 41 -41 62 0 21 -11 23 -28 6 -8 -8 -18 -3 -39 20 -32 37 -43
39 -66 14z"></path>
<path d="M5730 927 c0 -8 6 -17 13 -20 8 -3 26 -28 40 -56 21 -40 24 -52 13
-58 -7 -4 -18 -21 -23 -38 -6 -16 -14 -37 -18 -46 -6 -16 12 -18 67 -10 4 1 5
7 2 15 -3 8 -1 17 5 21 14 8 14 72 0 80 -5 4 -20 27 -32 52 -24 50 -67 88 -67
60z"></path>
<path d="M6088 916 c-20 -19 -11 -84 13 -97 23 -12 26 10 7 40 -9 15 -9 25 0
45 13 28 2 34 -20 12z"></path>
<path d="M3727 898 c-24 -19 -12 -61 16 -52 18 6 20 3 14 -36 -3 -24 -1 -53 4
-67 12 -31 57 -49 84 -32 14 8 20 9 23 0 5 -16 59 -14 66 4 3 8 10 15 16 15 5
0 10 -7 10 -15 0 -8 5 -15 11 -15 6 0 9 16 8 39 -2 26 3 46 13 58 14 15 15 21
3 37 -16 21 -48 15 -39 -8 4 -11 -3 -19 -20 -26 -14 -5 -25 -15 -24 -22 2 -6
-6 -14 -16 -16 -15 -3 -18 0 -13 17 7 26 -8 27 -50 1 -33 -20 -67 -17 -60 4 2
6 13 16 26 21 32 15 23 47 -16 57 -25 6 -30 12 -26 28 6 23 -6 26 -30 8z m228
-128 c-3 -5 -10 -10 -16 -10 -5 0 -9 5 -9 10 0 6 7 10 16 10 8 0 12 -4 9 -10z"></path>
<path d="M4235 890 c-9 -10 -37 -27 -61 -36 -51 -19 -74 -50 -74 -99 0 -28 4
-35 19 -35 10 0 24 7 31 16 10 11 23 14 51 9 34 -6 39 -4 70 36 19 23 46 55
62 70 15 15 27 30 27 33 0 10 -38 7 -45 -4 -12 -19 -45 -11 -45 10 0 25 -12
25 -35 0z m39 -37 c5 -11 -2 -26 -19 -42 -24 -24 -27 -25 -36 -8 -10 17 -12
17 -35 2 -13 -8 -24 -11 -24 -5 0 10 86 70 101 70 4 0 10 -8 13 -17z"></path>
<path d="M6380 889 c0 -5 5 -7 10 -4 6 3 10 8 10 11 0 2 -4 4 -10 4 -5 0 -10
-5 -10 -11z"></path>
<path d="M3630 871 c0 -6 -12 -11 -26 -11 -18 0 -28 -6 -31 -21 -4 -15 -11
-19 -26 -15 -11 3 -46 -8 -81 -26 -48 -25 -74 -32 -122 -32 -75 -1 -98 -16
-88 -60 10 -50 23 -55 53 -18 40 46 51 42 46 -20 -3 -41 1 -58 15 -75 24 -31
38 -29 76 8 28 27 32 37 27 63 -3 17 -13 41 -21 53 -13 21 -12 23 35 44 26 12
65 30 86 40 22 11 46 19 54 19 10 0 12 6 8 21 -5 15 -3 19 8 17 9 -2 16 2 17
7 1 6 -6 11 -14 13 -9 2 -16 -1 -16 -7z"></path>
<path d="M5387 811 c6 -59 5 -61 -36 -107 -39 -45 -41 -50 -35 -93 3 -25 10
-50 15 -56 5 -5 9 -22 9 -37 0 -19 6 -30 18 -34 9 -3 34 -13 54 -24 52 -25 58
-7 9 26 -23 14 -38 31 -35 36 3 5 14 2 24 -7 10 -9 21 -12 24 -7 3 5 -3 17
-14 27 -24 22 -50 71 -50 95 0 10 9 20 20 23 21 5 27 31 10 42 -8 5 -7 11 1
21 10 13 14 12 30 -2 11 -10 19 -23 19 -31 0 -7 5 -13 11 -13 14 0 2 34 -27
77 -13 20 -24 48 -24 64 0 32 -9 59 -20 59 -5 0 -6 -27 -3 -59z"></path>
<path d="M3675 841 c-8 -15 3 -31 21 -31 9 0 14 7 12 17 -4 20 -24 28 -33 14z"></path>
<path d="M4422 805 c-7 -14 -15 -44 -18 -65 -6 -40 -17 -50 -29 -30 -5 8 -11
7 -21 -1 -17 -14 -8 -31 14 -27 25 4 17 -71 -10 -94 -38 -33 -69 -20 -82 35
-3 15 -11 27 -16 27 -17 0 -11 -36 13 -71 25 -37 67 -50 94 -27 31 25 70 131
76 206 6 74 -1 91 -21 47z"></path>
<path d="M5565 820 c3 -5 8 -10 11 -10 2 0 4 5 4 10 0 6 -5 10 -11 10 -5 0 -7
-4 -4 -10z"></path>
<path d="M6540 820 c0 -5 7 -10 15 -10 8 0 15 5 15 10 0 6 -7 10 -15 10 -8 0
-15 -4 -15 -10z"></path>
<path d="M3162 749 c-23 -28 -49 -67 -58 -86 -11 -21 -22 -32 -30 -29 -9 3
-21 -9 -34 -34 -20 -38 -103 -266 -139 -380 -24 -75 -38 -100 -75 -132 -17
-14 -28 -29 -24 -33 4 -5 13 -3 21 3 7 6 23 9 35 5 17 -4 22 -1 22 13 0 21 48
74 67 74 7 0 20 11 29 26 11 16 23 23 32 19 11 -4 40 18 88 66 71 71 71 71 57
100 -8 16 -17 29 -20 29 -3 0 -41 -25 -85 -56 -44 -31 -81 -54 -83 -52 -7 7
34 112 47 123 8 5 26 45 41 88 33 100 88 198 138 248 22 22 37 44 34 49 -10
17 -19 11 -63 -41z m-111 -202 c-8 -8 -11 -7 -11 4 0 20 13 34 18 19 3 -7 -1
-17 -7 -23z m69 -215 c0 -12 -90 -94 -140 -128 -68 -46 -70 -47 -70 -29 0 9 9
19 20 22 15 4 19 11 15 24 -4 11 -2 19 4 19 6 0 43 22 83 50 73 50 88 57 88
42z"></path>
<path d="M4360 790 c0 -5 5 -10 10 -10 6 0 10 5 10 10 0 6 -4 10 -10 10 -5 0
-10 -4 -10 -10z"></path>
<path d="M5653 788 c-6 -7 -13 -38 -17 -68 -5 -48 -4 -53 8 -37 12 16 30 106
22 114 -2 2 -8 -2 -13 -9z"></path>
<path d="M4005 770 c-4 -6 -3 -16 3 -22 6 -6 12 -6 17 2 4 6 3 16 -3 22 -6 6
-12 6 -17 -2z"></path>
<path d="M6010 750 c0 -5 5 -10 10 -10 6 0 10 5 10 10 0 6 -4 10 -10 10 -5 0
-10 -4 -10 -10z"></path>
<path d="M5870 731 c0 -6 4 -13 10 -16 6 -3 7 1 4 9 -7 18 -14 21 -14 7z"></path>
<path d="M6057 710 c-6 -23 -3 -24 24 -9 11 5 17 14 14 20 -10 16 -32 10 -38
-11z"></path>
<path d="M3560 695 c-20 -22 -21 -25 -6 -31 24 -9 46 3 46 25 0 31 -15 33 -40
6z"></path>
<path d="M6309 691 c6 -11 9 -32 5 -47 -6 -24 -5 -25 15 -15 21 12 29 31 12
31 -5 0 -11 10 -13 22 -2 12 -9 23 -16 26 -11 3 -12 0 -3 -17z"></path>
<path d="M3700 690 c0 -5 5 -10 10 -10 6 0 10 5 10 10 0 6 -4 10 -10 10 -5 0
-10 -4 -10 -10z"></path>
<path d="M5890 690 c0 -5 5 -10 11 -10 5 0 7 5 4 10 -3 6 -8 10 -11 10 -2 0
-4 -4 -4 -10z"></path>
<path d="M4147 669 c7 -7 15 -10 18 -7 3 3 -2 9 -12 12 -14 6 -15 5 -6 -5z"></path>
<path d="M5500 665 c0 -8 7 -15 15 -15 9 0 12 6 9 15 -4 8 -10 15 -15 15 -5 0
-9 -7 -9 -15z"></path>
<path d="M6010 669 c0 -5 5 -7 10 -4 6 3 10 8 10 11 0 2 -4 4 -10 4 -5 0 -10
-5 -10 -11z"></path>
<path d="M6208 663 c-7 -26 19 -83 37 -83 21 0 20 64 -1 84 -20 21 -31 20 -36
-1z"></path>
<path d="M3286 651 c-15 -23 64 -127 90 -117 20 8 17 23 -6 36 -11 6 -29 29
-40 50 -20 39 -33 49 -44 31z"></path>
<path d="M5687 650 c-51 -9 -115 -43 -158 -83 -43 -41 -47 -158 -8 -215 20
-28 240 -236 263 -249 14 -8 27 -8 43 0 33 15 28 30 -8 22 -28 -6 -36 -2 -82
47 -29 29 -69 83 -89 118 -62 106 -47 158 42 144 37 -6 40 -5 33 12 -6 17 -5
18 11 4 10 -8 55 -20 100 -26 70 -10 97 -10 198 7 95 15 161 34 196 56 2 1 -9
18 -25 37 -21 27 -36 36 -59 36 -16 0 -66 17 -110 39 -122 58 -217 72 -347 51z
m-67 -92 c-12 -51 -19 -61 -55 -85 -35 -22 -45 -17 -45 26 0 23 66 79 106 91
1 0 -2 -15 -6 -32z"></path>
<path d="M3220 622 c0 -10 -5 -23 -12 -30 -6 -6 -8 -15 -4 -19 9 -9 46 33 46
53 0 8 -7 14 -15 14 -8 0 -15 -8 -15 -18z"></path>
<path d="M3550 621 c-79 -23 -81 -26 -75 -77 6 -48 -5 -56 -41 -29 -24 18 -44
19 -44 3 0 -14 74 -88 88 -88 5 0 19 -11 32 -25 19 -21 33 -25 76 -25 49 0 54
2 68 31 13 26 14 39 5 76 -7 24 -17 42 -23 40 -11 -4 -11 -14 0 -73 5 -26 3
-33 -14 -38 -39 -13 -91 11 -62 29 6 3 10 13 10 22 0 11 -6 14 -25 9 -21 -5
-25 -3 -25 16 0 13 -7 36 -15 52 -9 16 -14 30 -13 30 15 8 59 26 86 36 17 7
32 16 32 21 0 5 -1 8 -2 8 -2 -1 -28 -9 -58 -18z"></path>
<path d="M3955 620 c-3 -5 1 -10 10 -10 9 0 13 5 10 10 -3 6 -8 10 -10 10 -2
0 -7 -4 -10 -10z"></path>
<path d="M3880 600 c-8 -5 -11 -12 -7 -16 4 -4 13 -2 19 4 15 15 7 24 -12 12z"></path>
<path d="M6310 600 c0 -10 26 -20 55 -20 17 0 25 -6 27 -22 4 -32 32 -29 36 3
2 20 -2 28 -20 33 -37 11 -98 15 -98 6z"></path>
<path d="M5436 563 c-9 -22 20 -51 35 -36 8 8 8 17 0 32 -14 25 -27 27 -35 4z"></path>
<path d="M3279 538 c-17 -32 -28 -84 -19 -97 9 -15 99 24 107 46 6 15 -17 39
-59 63 -13 8 -20 5 -29 -12z"></path>
<path d="M4215 550 c3 -5 10 -10 16 -10 5 0 9 5 9 10 0 6 -7 10 -16 10 -8 0
-12 -4 -9 -10z"></path>
<path d="M4040 535 c-7 -9 -11 -18 -8 -20 3 -3 11 1 18 10 7 9 11 18 8 20 -3
3 -11 -1 -18 -10z"></path>
<path d="M3132 519 c-16 -25 -13 -30 16 -22 13 3 22 13 22 24 0 25 -22 24 -38
-2z"></path>
<path d="M3740 496 c0 -24 16 -43 27 -32 8 8 -6 56 -17 56 -6 0 -10 -11 -10
-24z"></path>
<path d="M3220 480 c0 -5 5 -10 10 -10 6 0 10 5 10 10 0 6 -4 10 -10 10 -5 0
-10 -4 -10 -10z"></path>
<path d="M3957 455 c-21 -18 -37 -40 -35 -48 2 -10 18 2 46 34 50 57 44 64
-11 14z"></path>
<path d="M3134 456 c-8 -14 -21 -23 -27 -20 -15 5 -75 -42 -65 -51 14 -14 142
70 132 87 -9 14 -23 8 -40 -16z"></path>
<path d="M3405 420 c-3 -5 -14 -10 -23 -10 -10 0 -22 -10 -27 -22 -6 -13 -34
-34 -62 -48 -56 -26 -63 -35 -35 -42 27 -7 102 30 112 56 4 12 20 30 34 39 26
17 35 37 17 37 -6 0 -13 -4 -16 -10z"></path>
<path d="M6374 382 c-137 -127 -171 -144 -282 -148 -47 -2 -90 -8 -95 -13 -15
-15 0 -41 23 -41 11 0 20 -4 20 -10 0 -5 7 -10 15 -10 13 0 14 4 5 20 -10 19
-9 20 8 9 16 -10 27 -8 64 9 62 30 78 28 45 -6 -26 -27 -35 -52 -20 -52 12 0
63 53 63 66 0 15 28 39 37 31 3 -4 -2 -18 -11 -33 -26 -39 -14 -38 24 1 19 19
40 35 47 35 9 0 11 8 7 25 -5 20 -2 25 20 31 14 3 26 11 26 18 0 16 38 38 45
26 20 -33 32 15 17 67 -7 21 -10 20 -58 -25z"></path>
<path d="M3226 404 c-9 -9 -14 -19 -11 -22 3 -3 13 2 22 11 9 9 14 19 11 22
-3 3 -13 -2 -22 -11z"></path>
<path d="M5330 400 c0 -5 5 -10 10 -10 6 0 10 5 10 10 0 6 -4 10 -10 10 -5 0
-10 -4 -10 -10z"></path>
<path d="M5813 365 c16 -14 33 -22 39 -19 13 8 -30 44 -52 43 -10 0 -5 -8 13
-24z"></path>
<path d="M3890 358 c-12 -22 -12 -22 6 -6 10 10 15 20 12 24 -4 3 -12 -5 -18
-18z"></path>
<path d="M5715 340 c-3 -5 0 -20 7 -32 10 -20 13 -21 16 -5 5 24 14 22 47 -13
15 -16 32 -27 37 -23 6 3 -7 23 -28 44 -37 38 -67 49 -79 29z"></path>
<path d="M3172 290 c-7 -11 -8 -20 -4 -20 5 0 17 9 27 20 14 15 15 20 4 20 -8
0 -20 -9 -27 -20z"></path>
<path d="M5400 291 c0 -19 17 -38 25 -29 7 7 -7 48 -16 48 -5 0 -9 -9 -9 -19z"></path>
<path d="M5860 285 c0 -8 5 -15 10 -15 6 0 10 7 10 15 0 8 -4 15 -10 15 -5 0
-10 -7 -10 -15z"></path>
<path d="M6356 274 c-17 -43 5 -74 53 -74 11 0 29 -9 40 -21 l19 -21 12 21
c16 32 -7 75 -43 79 -16 2 -31 10 -34 18 -7 19 -39 18 -47 -2z m44 -24 c8 -5
11 -12 8 -16 -10 -9 -38 3 -38 16 0 12 10 13 30 0z"></path>
<path d="M3850 265 c0 -8 5 -15 10 -15 6 0 10 7 10 15 0 8 -4 15 -10 15 -5 0
-10 -7 -10 -15z"></path>
<path d="M5957 243 c-14 -13 -6 -24 15 -21 27 4 36 28 11 28 -11 0 -23 -3 -26
-7z"></path>
<path d="M5780 214 c0 -8 -7 -14 -15 -14 -8 0 -15 -4 -15 -10 0 -6 27 -10 60
-10 33 0 60 4 60 9 0 5 -20 15 -45 23 -37 13 -45 13 -45 2z"></path>
<path d="M3074 195 c-9 -14 -23 -25 -30 -25 -8 0 -14 -4 -14 -10 0 -17 32 -11
67 13 18 12 33 28 33 35 0 22 -39 13 -56 -13z"></path>
<path d="M5895 170 c-3 -11 -3 -25 0 -30 4 -6 -3 -20 -16 -31 -12 -10 -18 -19
-14 -19 5 0 -8 -18 -30 -40 -21 -22 -36 -43 -32 -46 4 -4 34 20 66 54 56 56
60 63 54 96 -6 40 -18 47 -28 16z"></path>
<path d="M2993 167 c-25 -11 -31 -33 -11 -39 7 -3 -19 -30 -58 -62 -52 -43
-74 -56 -91 -51 -12 3 -25 1 -28 -5 -10 -17 81 -12 95 5 16 19 30 19 30 0 0
-28 15 -15 48 39 20 33 30 61 26 71 -4 10 -1 21 6 25 22 14 7 28 -17 17z"></path>
<path d="M6489 143 c-14 -38 5 -52 26 -20 16 25 14 47 -6 47 -5 0 -14 -12 -20
-27z"></path>
<path d="M6205 150 c-3 -5 -1 -10 4 -10 6 0 11 5 11 10 0 6 -2 10 -4 10 -3 0
-8 -4 -11 -10z"></path>
<path d="M2816 131 c-11 -12 -16 -24 -12 -28 9 -9 39 22 34 37 -2 7 -10 4 -22
-9z"></path>
<path d="M3833 113 c-7 -2 -13 -8 -13 -13 0 -10 38 -1 46 11 6 10 -13 11 -33
2z"></path>
<path d="M6986 111 c-4 -7 -5 -15 -2 -18 9 -9 19 4 14 18 -4 11 -6 11 -12 0z"></path>
<path d="M5966 90 c-10 -10 -33 -26 -50 -34 -18 -8 -40 -24 -51 -36 -18 -20
-18 -20 28 -20 28 0 47 5 47 11 0 6 14 27 30 46 42 47 39 76 -4 33z"></path>
<path d="M6315 91 c-10 -12 -23 -20 -29 -18 -14 5 -46 -11 -46 -22 0 -5 8 -11
18 -15 9 -3 22 -8 28 -11 13 -7 58 59 52 76 -2 6 -12 1 -23 -10z"></path>
<path d="M6723 74 c-8 -21 8 -34 35 -28 29 8 28 18 -3 32 -21 10 -27 9 -32 -4z"></path>
<path d="M2760 69 c0 -5 5 -7 10 -4 6 3 10 8 10 11 0 2 -4 4 -10 4 -5 0 -10
-5 -10 -11z"></path>
<path d="M6478 63 c-29 -15 -34 -28 -18 -53 8 -13 12 -12 25 8 20 27 35 28 35
2 0 -17 6 -20 43 -19 30 2 34 3 14 6 -20 3 -33 14 -44 39 -19 38 -17 38 -55
17z"></path>
<path d="M2585 60 c3 -5 8 -10 11 -10 2 0 4 5 4 10 0 6 -5 10 -11 10 -5 0 -7
-4 -4 -10z"></path>
<path d="M6002 58 c-13 -13 -4 -38 14 -38 15 0 19 35 6 44 -5 3 -14 0 -20 -6z"></path>
<path d="M5790 49 c0 -5 5 -7 10 -4 6 3 10 8 10 11 0 2 -4 4 -10 4 -5 0 -10
-5 -10 -11z"></path>
<path d="M6111 38 c0 -13 3 -18 5 -11 4 9 11 9 30 1 20 -10 28 -8 42 6 16 17
15 18 -16 14 -18 -3 -35 -1 -38 4 -10 16 -24 8 -23 -14z"></path>
<path d="M2715 31 c-7 -12 12 -24 25 -16 11 7 4 25 -10 25 -5 0 -11 -4 -15 -9z"></path>
<path d="M6730 10 c-12 -8 -9 -10 13 -10 15 0 27 5 27 10 0 13 -20 13 -40 0z"></path>
</g>
</svg>