<?xml version="1.0" encoding="iso-8859-1"?>
<!-- Generator: Adobe Illustrator 19.0.0, SVG Export Plug-In . SVG Version: 6.00 Build 0)  -->
<svg version="1.1" fill="#2196f3" id="Layer_1" xmlns="http://www.w3.org/2000/svg" xmlns:xlink="http://www.w3.org/1999/xlink" x="0px" y="0px"
	 viewBox="0 0 512 512" style="enable-background:new 0 0 512 512;" xml:space="preserve">
<g>
	<g>
		<g>
			<path d="M512,42.667c0-14.114-11.486-25.6-25.6-25.6H25.6c-14.114,0-25.6,11.486-25.6,25.6v119.467
				c0,6.551,2.477,12.534,6.541,17.067C2.477,183.733,0,189.715,0,196.267v119.467c0,6.551,2.477,12.534,6.541,17.067
				C2.477,337.333,0,343.315,0,349.867v119.467c0,14.114,11.486,25.6,25.6,25.6h460.8c14.114,0,25.6-11.486,25.6-25.6V349.867
				c0-6.551-2.477-12.534-6.541-17.067c4.063-4.533,6.541-10.516,6.541-17.067V196.267c0-6.551-2.477-12.534-6.541-17.067
				c4.063-4.533,6.541-10.515,6.541-17.067V42.667z M17.067,42.667c0-4.702,3.823-8.533,8.533-8.533h460.8
				c4.71,0,8.533,3.831,8.533,8.533v119.467c0,4.702-3.823,8.533-8.533,8.533H25.6c-4.71,0-8.533-3.831-8.533-8.533V42.667z
				 M494.933,196.267v119.467c0,4.702-3.823,8.533-8.533,8.533H25.6c-4.71,0-8.533-3.831-8.533-8.533V196.267
				c0-4.702,3.823-8.533,8.533-8.533h460.8C491.11,187.733,494.933,191.565,494.933,196.267z M494.933,469.333
				c0,4.702-3.823,8.533-8.533,8.533H25.6c-4.71,0-8.533-3.831-8.533-8.533V349.867c0-4.702,3.823-8.533,8.533-8.533h460.8
				c4.71,0,8.533,3.831,8.533,8.533V469.333z"/>
			<path d="M443.733,93.867c9.421,0,17.067-7.646,17.067-17.067c0-9.421-7.646-17.067-17.067-17.067
				c-9.421,0-17.067,7.646-17.067,17.067C426.667,86.221,434.313,93.867,443.733,93.867z"/>
			<path d="M443.733,145.067c9.421,0,17.067-7.646,17.067-17.067c0-9.421-7.646-17.067-17.067-17.067
				c-9.421,0-17.067,7.646-17.067,17.067C426.667,137.421,434.313,145.067,443.733,145.067z"/>
			<path d="M85.333,153.6c28.237,0,51.2-22.963,51.2-51.2s-22.963-51.2-51.2-51.2c-28.237,0-51.2,22.963-51.2,51.2
				S57.097,153.6,85.333,153.6z M85.333,68.267c18.825,0,34.133,15.309,34.133,34.133s-15.309,34.133-34.133,34.133
				c-18.825,0-34.133-15.309-34.133-34.133S66.509,68.267,85.333,68.267z"/>
			<path d="M162.133,85.333h238.933c4.719,0,8.533-3.823,8.533-8.533c0-4.71-3.814-8.533-8.533-8.533H162.133
				c-4.719,0-8.533,3.823-8.533,8.533C153.6,81.51,157.414,85.333,162.133,85.333z"/>
			<path d="M162.133,136.533h238.933c4.719,0,8.533-3.823,8.533-8.533c0-4.71-3.814-8.533-8.533-8.533H162.133
				c-4.719,0-8.533,3.823-8.533,8.533C153.6,132.71,157.414,136.533,162.133,136.533z"/>
			<path d="M443.733,247.467c9.421,0,17.067-7.646,17.067-17.067c0-9.421-7.646-17.067-17.067-17.067
				c-9.421,0-17.067,7.646-17.067,17.067C426.667,239.821,434.313,247.467,443.733,247.467z"/>
			<path d="M443.733,298.667c9.421,0,17.067-7.646,17.067-17.067s-7.646-17.067-17.067-17.067c-9.421,0-17.067,7.646-17.067,17.067
				S434.313,298.667,443.733,298.667z"/>
			<path d="M85.333,307.2c28.237,0,51.2-22.963,51.2-51.2c0-28.237-22.963-51.2-51.2-51.2c-28.237,0-51.2,22.963-51.2,51.2
				C34.133,284.237,57.097,307.2,85.333,307.2z M85.333,221.867c18.825,0,34.133,15.309,34.133,34.133
				c0,18.825-15.309,34.133-34.133,34.133C66.509,290.133,51.2,274.825,51.2,256C51.2,237.175,66.509,221.867,85.333,221.867z"/>
			<path d="M162.133,238.933h238.933c4.719,0,8.533-3.823,8.533-8.533s-3.814-8.533-8.533-8.533H162.133
				c-4.719,0-8.533,3.823-8.533,8.533S157.414,238.933,162.133,238.933z"/>
			<path d="M162.133,290.133h238.933c4.719,0,8.533-3.823,8.533-8.533s-3.814-8.533-8.533-8.533H162.133
				c-4.719,0-8.533,3.823-8.533,8.533S157.414,290.133,162.133,290.133z"/>
			<path d="M443.733,366.933c-9.421,0-17.067,7.646-17.067,17.067c0,9.421,7.646,17.067,17.067,17.067
				c9.421,0,17.067-7.646,17.067-17.067C460.8,374.579,453.154,366.933,443.733,366.933z"/>
			<path d="M443.733,418.133c-9.421,0-17.067,7.646-17.067,17.067c0,9.421,7.646,17.067,17.067,17.067
				c9.421,0,17.067-7.646,17.067-17.067C460.8,425.779,453.154,418.133,443.733,418.133z"/>
			<path d="M85.333,358.4c-28.237,0-51.2,22.963-51.2,51.2s22.963,51.2,51.2,51.2c28.237,0,51.2-22.963,51.2-51.2
				S113.57,358.4,85.333,358.4z M85.333,443.733c-18.825,0-34.133-15.309-34.133-34.133s15.309-34.133,34.133-34.133
				c18.825,0,34.133,15.309,34.133,34.133S104.158,443.733,85.333,443.733z"/>
			<path d="M401.067,375.467H162.133c-4.719,0-8.533,3.823-8.533,8.533c0,4.71,3.814,8.533,8.533,8.533h238.933
				c4.719,0,8.533-3.823,8.533-8.533C409.6,379.29,405.786,375.467,401.067,375.467z"/>
			<path d="M401.067,426.667H162.133c-4.719,0-8.533,3.823-8.533,8.533c0,4.71,3.814,8.533,8.533,8.533h238.933
				c4.719,0,8.533-3.823,8.533-8.533C409.6,430.49,405.786,426.667,401.067,426.667z"/>
		</g>
	</g>
</g>
<g>
</g>
<g>
</g>
<g>
</g>
<g>
</g>
<g>
</g>
<g>
</g>
<g>
</g>
<g>
</g>
<g>
</g>
<g>
</g>
<g>
</g>
<g>
</g>
<g>
</g>
<g>
</g>
<g>
</g>
</svg>
